<?xml version="1.0" encoding="utf-8"?>
<!-- Generator: Adobe Illustrator 22.1.0, SVG Export Plug-In . SVG Version: 6.00 Build 0)  -->
<svg version="1.1" id="Layer_1" xmlns="http://www.w3.org/2000/svg" xmlns:xlink="http://www.w3.org/1999/xlink" x="0px" y="0px"
	 viewBox="0 0 74.2 66.1" style="enable-background:new 0 0 74.2 66.1;" xml:space="preserve">
<style type="text/css">
	.st0{opacity:0.5;}
	.st1{fill:url(#SVGID_1_);}
	.st2{fill:none;stroke:#E7524E;stroke-width:2;stroke-linejoin:round;stroke-miterlimit:10;}
	.st3{fill:none;stroke:#E7524E;stroke-width:2;stroke-linecap:round;stroke-linejoin:round;stroke-miterlimit:10;}
	.st4{fill:#E7524E;}
</style>
<g id="XMLID_580_" class="st0">
	<linearGradient id="SVGID_1_" gradientUnits="userSpaceOnUse" x1="-2.7974" y1="10.0249" x2="77.0134" y2="56.1037">
		<stop  offset="0" style="stop-color:#E7524E"/>
		<stop  offset="1" style="stop-color:#E7524E;stop-opacity:0"/>
	</linearGradient>
	<path class="st1" d="M67.1,66.1H7.1C3.2,66.1,0,63,0,59v-52C0,3.2,3.2,0,7.1,0h60.1c3.9,0,7.1,3.2,7.1,7.1v52
		C74.2,63,71,66.1,67.1,66.1z"/>
</g>
<line id="XMLID_573_" class="st2" x1="0" y1="14.7" x2="74.2" y2="14.7"/>
<line id="XMLID_572_" class="st2" x1="21.4" y1="14.7" x2="21.4" y2="66.1"/>
<line id="XMLID_571_" class="st3" x1="32.4" y1="27.7" x2="41.4" y2="27.7"/>
<line id="XMLID_570_" class="st3" x1="32.4" y1="51.7" x2="41.4" y2="51.7"/>
<line id="XMLID_569_" class="st3" x1="43.4" y1="35.7" x2="62.4" y2="35.7"/>
<line id="XMLID_568_" class="st3" x1="36.4" y1="42.7" x2="52.4" y2="42.7"/>
<g id="XMLID_538_">
	<circle id="XMLID_541_" class="st4" cx="14.5" cy="7.6" r="1.9"/>
	<circle id="XMLID_540_" class="st4" cx="8.2" cy="7.6" r="1.9"/>
	<circle id="XMLID_539_" class="st4" cx="20.7" cy="7.6" r="1.9"/>
</g>
</svg>
