<?xml version="1.0" encoding="utf-8"?>
<!-- Generator: Adobe Illustrator 22.1.0, SVG Export Plug-In . SVG Version: 6.00 Build 0)  -->
<svg version="1.1" id="Layer_1" xmlns="http://www.w3.org/2000/svg" xmlns:xlink="http://www.w3.org/1999/xlink" x="0px" y="0px"
	 viewBox="0.3 0.2 125.1 78.3" style="enable-background:new 0.3 0.2 125.1 78.3;" xml:space="preserve">
<style type="text/css">
	.st0{fill:#C59353;stroke:#00254C;stroke-width:1.8;}
</style>
<g id="g11" transform="matrix(1.25,0,0,-1.25,-386.70525,467.7315)">
	<path class="st0" d="M349.9,338.7h7.5l0.8,4.6h4.7c-1.3-8.4-10-13.6-19.8-12.8c-9.7,0.7-18.8,6.2-18.8,15.6
		c0.1,10.1,8.8,16.9,18.5,17.3c6.2,0.3,12.7-2.2,17.2-6c0.5-0.3,0.2,0,0.7-0.5h8.9v16.4h-8.7v-5.8h-0.1c-4.4,3.1-11.8,5.6-19.7,5.6
		c-16.5,0-31-12.9-30.8-27.1c0.2-14.6,15.6-25.3,32-24c7.7,0.6,14.6,2.5,19.3,5.2v-2.4h9.3v18.5h4.5v-22.4H370v-8.8h23v8.8h-5.4
		v22.4h13l0.8-4.6h7.5v14.5h-59V338.7z"/>
</g>
</svg>
