<?xml version="1.0" encoding="utf-8"?>
<!-- Generator: Adobe Illustrator 22.1.0, SVG Export Plug-In . SVG Version: 6.00 Build 0)  -->
<svg version="1.1" id="Capa_1" xmlns="http://www.w3.org/2000/svg" xmlns:xlink="http://www.w3.org/1999/xlink" x="0px" y="0px"
	 viewBox="0 0 142.1 97.1" style="enable-background:new 0 0 142.1 97.1;" xml:space="preserve">
<style type="text/css">
	.st0{fill:#0051BA;}
</style>
<g>
	<path class="st0" d="M138.3,53.1H93.7V39.6h2.2c2.1,0,3.7-1.7,3.7-3.7v-4.6c0-2.1-1.7-3.7-3.7-3.7H46.6c-2.1,0-3.7,1.7-3.7,3.7v4.6
		c0,2.1,1.7,3.7,3.7,3.7h2.2v5.8H3.7C1.7,45.4,0,47,0,49.1v4.6c0,2.1,1.7,3.7,3.7,3.7h2.2v31.9c0,0.6,0.4,1,1,1h41.9v6.8h44.9v-6.8
		h41.4c0.6,0,1-0.4,1-1V65.2h2.2c2.1,0,3.7-1.7,3.7-3.7v-4.6C142.1,54.8,140.4,53.1,138.3,53.1z M46.6,37.6c-1,0-1.7-0.8-1.7-1.7
		v-4.6c0-1,0.8-1.7,1.7-1.7h49.3c1,0,1.7,0.8,1.7,1.7v4.6c0,1-0.8,1.7-1.7,1.7h-2.2H48.8H46.6z M91.7,39.6v24.6v23.2H50.8V56.4V39.6
		H91.7z M2,53.7v-4.6c0-1,0.8-1.7,1.7-1.7h45.1v8H6.9H3.7C2.8,55.4,2,54.6,2,53.7z M48.8,57.4v23.6H7.9V57.4H48.8z M7.9,88.2v-5.3
		h40.9v5.3H7.9z M50.8,95.1v-5.8h40.9v5.8H50.8z M93.7,88.2v-5.3h40.4v5.3H93.7z M134.2,80.9H93.7V65.2h40.4V80.9z M140.1,61.4
		c0,1-0.8,1.7-1.7,1.7h-3.2H93.7v-8h44.6c1,0,1.7,0.8,1.7,1.7V61.4z"/>
	<g>
		<path class="st0" d="M70,2.2L70,2.2l-3.1,1.7l-0.5-1.8L70.3,0h2.1v17.8H70V2.2z"/>
	</g>
	<g>
		<path class="st0" d="M19.9,37.7v-1.5l1.9-1.8c4.5-4.3,6.6-6.6,6.6-9.3c0-1.8-0.9-3.5-3.5-3.5c-1.6,0-3,0.8-3.8,1.5l-0.8-1.7
			c1.2-1,3-1.8,5-1.8c3.8,0,5.4,2.6,5.4,5.2c0,3.3-2.4,5.9-6.1,9.6l-1.4,1.3v0.1h8v2H19.9z"/>
	</g>
	<g>
		<path class="st0" d="M108.3,39.2c0.7,0.4,2.3,1.1,3.9,1.1c3.1,0,4.1-2,4-3.4c0-2.5-2.3-3.6-4.6-3.6h-1.3v-1.8h1.3c1.8,0,4-0.9,4-3
			c0-1.4-0.9-2.7-3.1-2.7c-1.4,0-2.8,0.6-3.6,1.2l-0.6-1.8c0.9-0.7,2.7-1.4,4.7-1.4c3.5,0,5.1,2.1,5.1,4.2c0,1.8-1.1,3.4-3.3,4.2
			v0.1c2.2,0.4,4,2.1,4,4.6c0,2.8-2.2,5.3-6.5,5.3c-2,0-3.8-0.6-4.6-1.2L108.3,39.2z"/>
	</g>
</g>
</svg>
