<?xml version="1.0" encoding="utf-8"?>
<!-- Generator: Adobe Illustrator 22.1.0, SVG Export Plug-In . SVG Version: 6.00 Build 0)  -->
<svg version="1.1" id="Layer_2" xmlns="http://www.w3.org/2000/svg" xmlns:xlink="http://www.w3.org/1999/xlink" x="0px" y="0px"
	 viewBox="0 0 76.6 71.8" style="enable-background:new 0 0 76.6 71.8;" xml:space="preserve">
<style type="text/css">
	.st0{fill:#FFFFFF;}
</style>
<g>
	<path class="st0" d="M26.5,20H9c-0.6,0-1,0.4-1,1s0.4,1,1,1h17.4c0.6,0,1-0.4,1-1S27,20,26.5,20z"/>
	<path class="st0" d="M58.5,20h-4.3c-0.6,0-1,0.4-1,1s0.4,1,1,1h4.3c0.6,0,1-0.4,1-1S59.1,20,58.5,20z"/>
	<path class="st0" d="M67.6,20h-4.3c-0.6,0-1,0.4-1,1s0.4,1,1,1h4.3c0.6,0,1-0.4,1-1S68.2,20,67.6,20z"/>
	<path class="st0" d="M8.1,9.1c0.6,0,1-0.5,1-1s-0.5-1-1-1S7,7.5,7,8S7.5,9.1,8.1,9.1z"/>
	<path class="st0" d="M13.6,9.1c0.6,0,1-0.5,1-1s-0.5-1-1-1s-1,0.5-1,1S13.1,9.1,13.6,9.1z"/>
	<path class="st0" d="M19.2,9.1c0.6,0,1-0.5,1-1s-0.5-1-1-1c-0.6,0-1,0.5-1,1S18.6,9.1,19.2,9.1z"/>
	<path class="st0" d="M73.1,0H3.5C1.6,0,0,1.6,0,3.5v58C0,63.4,1.6,65,3.5,65h9.8c0.8,2.2,1.8,4.4,3.2,6.4l0.3,0.4h13.4
		c0.1,0,0.1,0,0.2,0s0.1,0,0.2,0h14.8c0.1,0,0.1,0,0.2,0s0.1,0,0.2,0h14.7l0.3-0.4c1.4-2,2.4-4.1,3.2-6.4h9.3c1.9,0,3.5-1.6,3.5-3.5
		v-58C76.6,1.6,75,0,73.1,0z M3.5,2h69.6c0.8,0,1.5,0.7,1.5,1.5v10.1H2V3.5C2,2.7,2.7,2,3.5,2z M33.5,57.3c-2-1.4-3.1-3.7-3.1-6.1
		c0-4.2,3.4-7.5,7.5-7.5s7.5,3.4,7.5,7.5c0,2.4-1.2,4.7-3.1,6.1l-1.6,1.2l1.9,0.6c5.2,1.6,9.3,5.6,10.9,10.7h-7.1v-1.4
		c0-0.6-0.4-1-1-1s-1,0.4-1,1v1.4H31.4v-1.4c0-0.6-0.4-1-1-1s-1,0.4-1,1v1.4h-7.1c1.7-5.1,5.8-9.1,10.9-10.7l1.9-0.6L33.5,57.3z
		 M59.3,69.8h-3.5c-1.6-5.4-5.6-9.9-10.8-12c1.6-1.8,2.6-4.1,2.6-6.5c0-5.3-4.3-9.5-9.5-9.5s-9.5,4.3-9.5,9.5c0,2.4,0.9,4.8,2.6,6.5
		c-5.2,2.1-9.2,6.6-10.8,12h-2.3c-1.3-2-2.3-4.1-3-6.3c-0.1-0.4-0.2-0.8-0.3-1.2c-0.1-0.2-0.1-0.4-0.2-0.6c-0.1-0.4-0.2-0.8-0.2-1.2
		c0-0.2-0.1-0.4-0.1-0.6C14,59.5,14,59,13.9,58.6c0-0.2,0-0.4-0.1-0.6c0-0.6-0.1-1.2-0.1-1.9c0-13.7,11.1-24.8,24.8-24.8
		c13.7,0,24.8,11.1,24.8,24.8c0,0.6,0,1.2-0.1,1.9c0,0.2,0,0.4-0.1,0.6c0,0.4-0.1,0.9-0.1,1.3c0,0.2-0.1,0.4-0.1,0.6
		c-0.1,0.4-0.1,0.8-0.2,1.2c0,0.2-0.1,0.4-0.2,0.6c-0.1,0.4-0.2,0.8-0.3,1.2C61.5,65.7,60.5,67.8,59.3,69.8z M73.1,63h-8.7
		c0-0.1,0.1-0.3,0.1-0.4c0.1-0.3,0.1-0.5,0.2-0.8c0.1-0.4,0.1-0.7,0.2-1.1c0-0.3,0.1-0.5,0.1-0.8c0.1-0.4,0.1-0.8,0.1-1.2
		c0-0.2,0-0.4,0.1-0.6c0-0.6,0.1-1.3,0.1-1.9c0-14.8-12-26.8-26.8-26.8c-14.8,0-26.8,12-26.8,26.8c0,0.6,0,1.3,0.1,1.9
		c0,0.2,0,0.4,0.1,0.6c0,0.4,0.1,0.8,0.1,1.2c0,0.3,0.1,0.5,0.1,0.8c0.1,0.4,0.1,0.7,0.2,1.1c0.1,0.3,0.1,0.5,0.2,0.8
		c0,0.1,0.1,0.3,0.1,0.4H3.5C2.7,63,2,62.3,2,61.5V15.6h72.6v45.9C74.6,62.3,73.9,63,73.1,63z"/>
</g>
</svg>
