<?xml version="1.0" encoding="utf-8"?>
<!-- Generator: Adobe Illustrator 22.1.0, SVG Export Plug-In . SVG Version: 6.00 Build 0)  -->
<svg version="1.1" id="Layer_2" xmlns="http://www.w3.org/2000/svg" xmlns:xlink="http://www.w3.org/1999/xlink" x="0px" y="0px"
	 viewBox="0 0 83.5 71.7" style="enable-background:new 0 0 83.5 71.7;" xml:space="preserve">
<style type="text/css">
	.st0{fill:#FFFFFF;}
</style>
<g>
	<path class="st0" d="M9.7,22h17.4c0.6,0,1-0.4,1-1s-0.4-1-1-1H9.7c-0.6,0-1,0.4-1,1S9.2,22,9.7,22z"/>
	<path class="st0" d="M55,22h4.3c0.6,0,1-0.4,1-1s-0.4-1-1-1H55c-0.6,0-1,0.4-1,1S54.4,22,55,22z"/>
	<path class="st0" d="M64.1,22h4.3c0.6,0,1-0.4,1-1s-0.4-1-1-1h-4.3c-0.6,0-1,0.4-1,1S63.5,22,64.1,22z"/>
	<path class="st0" d="M8.2,9.2c0.6,0,1.1-0.5,1.1-1.1S8.8,7.1,8.2,7.1S7.1,7.5,7.1,8.1S7.6,9.2,8.2,9.2z"/>
	<path class="st0" d="M13.8,9.2c0.6,0,1.1-0.5,1.1-1.1s-0.5-1.1-1.1-1.1c-0.6,0-1.1,0.5-1.1,1.1S13.2,9.2,13.8,9.2z"/>
	<circle class="st0" cx="19.4" cy="8.1" r="1.1"/>
	<path class="st0" d="M10.2,48.7h57.5c0.8,0,1.4-0.6,1.4-1.4V28.7c0-0.8-0.6-1.4-1.4-1.4H10.2c-0.8,0-1.4,0.6-1.4,1.4v18.5
		C8.7,48,9.4,48.7,10.2,48.7z M10.7,29.3h56.4v17.4H10.7V29.3z"/>
	<path class="st0" d="M80,6h-2.6V3.5c0-1.9-1.6-3.5-3.5-3.5H3.5C1.6,0,0,1.6,0,3.5v58.7c0,1.9,1.6,3.5,3.5,3.5h2.6v2.5
		c0,1.9,1.6,3.5,3.5,3.5H80c1.9,0,3.5-1.6,3.5-3.5V9.5C83.5,7.6,82,6,80,6z M3.5,2h70.4c0.8,0,1.5,0.7,1.5,1.5V6h0v7.8H2V3.5
		C2,2.7,2.7,2,3.5,2z M3.5,63.7C2.7,63.7,2,63,2,62.2V15.8h73.4v46.4c0,0.8-0.7,1.5-1.5,1.5h-4.8v-8.4c0-0.8-0.6-1.4-1.4-1.4H51
		c-0.8,0-1.4,0.6-1.4,1.4v8.4h-0.9v-8.4c0-0.8-0.6-1.4-1.4-1.4H30.6c-0.8,0-1.4,0.6-1.4,1.4v8.4h-0.9v-8.4c0-0.8-0.6-1.4-1.4-1.4
		H10.2c-0.8,0-1.4,0.6-1.4,1.4v8.4H6.1H3.5z M67.2,63.7H51.6v-7.9h15.5V63.7z M46.7,63.7H31.2v-7.9h15.5V63.7z M26.3,63.7H10.7v-7.9
		h15.5V63.7z M81.5,68.2c0,0.8-0.7,1.5-1.5,1.5H9.6c-0.8,0-1.5-0.7-1.5-1.5v-2.5h2.1h16.7h3.8h16.7H51h16.7h6.2h0
		c1.9,0,3.5-1.6,3.5-3.5V8H80c0.8,0,1.5,0.7,1.5,1.5V68.2z"/>
</g>
</svg>
