<?xml version="1.0" encoding="utf-8"?>
<!-- Generator: Adobe Illustrator 22.1.0, SVG Export Plug-In . SVG Version: 6.00 Build 0)  -->
<svg version="1.1" id="Layer_2" xmlns="http://www.w3.org/2000/svg" xmlns:xlink="http://www.w3.org/1999/xlink" x="0px" y="0px"
	 viewBox="0 0 42 70.5" style="enable-background:new 0 0 42 70.5;" xml:space="preserve">
<style type="text/css">
	.st0{fill:#FFFFFF;}
</style>
<g>
	<path class="st0" d="M33.9,0H8.1C3.6,0,0,3.6,0,8.1v54.4c0,4.4,3.6,8.1,8.1,8.1h25.9c4.4,0,8.1-3.6,8.1-8.1V8.1
		C42,3.6,38.4,0,33.9,0z M8.1,2h25.9C37.3,2,40,4.7,40,8.1V11H2V8.1C2,4.7,4.7,2,8.1,2z M40,13v43H2V13H40z M33.9,68.5H8.1
		c-3.3,0-6.1-2.7-6.1-6.1V58h38v4.5C40,65.8,37.3,68.5,33.9,68.5z"/>
	<path class="st0" d="M21.2,59.4c-1.9,0-3.4,1.5-3.4,3.4s1.5,3.4,3.4,3.4s3.4-1.5,3.4-3.4S23,59.4,21.2,59.4z M21.2,64.3
		c-0.8,0-1.4-0.6-1.4-1.4s0.6-1.4,1.4-1.4s1.4,0.6,1.4,1.4S21.9,64.3,21.2,64.3z"/>
	<path class="st0" d="M21,7.7c0.7,0,1.2-0.5,1.2-1.2c0-0.7-0.5-1.2-1.2-1.2c-0.7,0-1.2,0.5-1.2,1.2C19.8,7.2,20.3,7.7,21,7.7z"/>
</g>
</svg>
