<?xml version="1.0" encoding="utf-8"?>
<!-- Generator: Adobe Illustrator 22.1.0, SVG Export Plug-In . SVG Version: 6.00 Build 0)  -->
<svg version="1.1" id="Layer_2" xmlns="http://www.w3.org/2000/svg" xmlns:xlink="http://www.w3.org/1999/xlink" x="0px" y="0px"
	 viewBox="0 0 76.8 71" style="enable-background:new 0 0 76.8 71;" xml:space="preserve">
<style type="text/css">
	.st0{fill:#FFFFFF;}
</style>
<g>
	<path class="st0" d="M47,10.7H33c-4.4,0-8.1,3.6-8.1,8.1v34.1c0,4.4,3.6,8.1,8.1,8.1h14c4.4,0,8.1-3.6,8.1-8.1V18.8
		C55.1,14.3,51.5,10.7,47,10.7z M33,12.7h14c3.2,0,5.8,2.5,6,5.7H27C27.2,15.2,29.8,12.7,33,12.7z M53.1,20.4v30H26.9v-30H53.1z
		 M47,58.9H33c-3.3,0-6.1-2.7-6.1-6.1v-0.5h26.2v0.5C53.1,56.2,50.4,58.9,47,58.9z"/>
	<path class="st0" d="M40.4,54.2c-0.9,0-1.7,0.8-1.7,1.7s0.8,1.7,1.7,1.7s1.7-0.8,1.7-1.7S41.4,54.2,40.4,54.2z M40.4,56.2
		c-0.2,0-0.3-0.1-0.3-0.3c0-0.2,0.1-0.3,0.3-0.3s0.3,0.1,0.3,0.3C40.7,56.1,40.6,56.2,40.4,56.2z"/>
	<path class="st0" d="M40,16.4c0.5,0,0.9-0.4,0.9-0.9c0-0.5-0.4-0.9-0.9-0.9s-0.9,0.4-0.9,0.9C39.2,16,39.6,16.4,40,16.4z"/>
	<path class="st0" d="M38.7,35.4c1.3,0.5,2,1.1,2,2.1c0,1-0.9,1.7-2.1,1.7c-1,0-1.9-0.3-2.6-0.8l-0.4,1.2c0.6,0.4,1.7,0.8,2.7,0.8
		v1.8h1.1v-1.8c1.8-0.3,2.8-1.6,2.8-3c0-1.6-0.9-2.5-2.7-3.2c-1.5-0.6-2.2-1.1-2.2-2c0-0.7,0.5-1.5,1.9-1.5c1.1,0,1.9,0.4,2.2,0.6
		l0.4-1.2c-0.5-0.3-1.2-0.6-2.3-0.6v-1.7h-1.1v1.8c-1.6,0.3-2.7,1.4-2.7,2.9C35.8,33.8,36.9,34.6,38.7,35.4z"/>
	<path class="st0" d="M8.3,59.4c-1.1-0.8-2.5-1.1-3.9-0.9c-1.4,0.2-2.6,1-3.4,2.2c-1.7,2.4-1.1,5.6,1.3,7.3c0.9,0.6,2,0.9,3,0.9
		c1.7,0,3.3-0.8,4.3-2.2C11.2,64.3,10.6,61.1,8.3,59.4z M7.9,65.6c-1,1.5-3.1,1.8-4.5,0.8c-1.5-1-1.8-3.1-0.8-4.5
		c0.5-0.7,1.2-1.2,2.1-1.3c0.2,0,0.4,0,0.6,0c0.7,0,1.3,0.2,1.9,0.6C8.6,62.1,8.9,64.1,7.9,65.6z"/>
	<path class="st0" d="M71.6,6.7c-2.9,0-5.2,2.4-5.2,5.2s2.4,5.2,5.2,5.2s5.2-2.4,5.2-5.2S74.5,6.7,71.6,6.7z M71.6,15.1
		c-1.8,0-3.2-1.5-3.2-3.2s1.5-3.2,3.2-3.2c1.8,0,3.2,1.5,3.2,3.2S73.4,15.1,71.6,15.1z"/>
	<path class="st0" d="M4.1,29.8c0.4,0.1,0.8,0.2,1.2,0.2c0.8,0,1.5-0.2,2.2-0.6c1-0.6,1.8-1.5,2.1-2.7s0.2-2.3-0.4-3.4
		c-0.6-1-1.5-1.8-2.7-2.1C4.1,20.6,1.6,22,1,24.4C0.3,26.7,1.7,29.1,4.1,29.8z M2.9,24.9c0.3-1.1,1.3-1.8,2.3-1.8
		c0.2,0,0.4,0,0.6,0.1c0.6,0.2,1.1,0.6,1.5,1.1s0.4,1.2,0.2,1.8S7,27.3,6.4,27.6c-0.6,0.3-1.2,0.4-1.8,0.2
		C3.3,27.5,2.6,26.2,2.9,24.9z"/>
	<path class="st0" d="M71,59.8c-1.4-0.8-3-1-4.6-0.6c-1.6,0.4-2.9,1.4-3.7,2.8c-0.8,1.4-1,3-0.6,4.6c0.7,2.7,3.2,4.5,5.8,4.5
		c0.5,0,1-0.1,1.5-0.2c1.6-0.4,2.9-1.4,3.7-2.8c0.8-1.4,1-3,0.6-4.6C73.3,61.9,72.4,60.6,71,59.8z M71.4,67C70.9,68,70,68.6,69,68.9
		c-2.1,0.6-4.3-0.7-4.9-2.9c-0.3-1-0.1-2.1,0.4-3c0.5-0.9,1.4-1.6,2.4-1.9c0.3-0.1,0.7-0.1,1-0.1c0.7,0,1.4,0.2,2,0.5
		c0.9,0.5,1.6,1.4,1.9,2.4C72.1,65,71.9,66.1,71.4,67z"/>
	<path class="st0" d="M20.8,9.5c0.2,0.2,0.5,0.3,0.7,0.3c0.3,0,0.5-0.1,0.7-0.3c0.4-0.4,0.4-1,0-1.4L22.1,8c0.8-1.3,1-2.8,0.6-4.3
		c-0.9-2.8-3.8-4.3-6.6-3.4c-2.8,0.9-4.3,3.8-3.4,6.6c0.7,2.2,2.8,3.6,5,3.6c0.5,0,1.1-0.1,1.6-0.3C19.8,10.1,20.3,9.8,20.8,9.5
		L20.8,9.5z M18.7,8.3c-1.7,0.5-3.5-0.4-4.1-2.1C14,4.5,15,2.7,16.7,2.2C17,2.1,17.4,2,17.7,2c0.5,0,1,0.1,1.5,0.4
		c0.8,0.4,1.3,1.1,1.6,1.9C21.3,6,20.4,7.8,18.7,8.3z"/>
	<path class="st0" d="M25.7,13.1c0.4-0.4,0.4-1,0-1.4L25.1,11c-0.4-0.4-1-0.4-1.4,0c-0.4,0.4-0.4,1,0,1.4l0.7,0.7
		c0.2,0.2,0.5,0.3,0.7,0.3C25.3,13.4,25.5,13.3,25.7,13.1z"/>
	<path class="st0" d="M12.5,29.3c0.4,0,0.8-0.3,1-0.7c0.1-0.5-0.2-1.1-0.7-1.2l-1-0.3c-0.5-0.1-1.1,0.2-1.2,0.7
		c-0.1,0.5,0.2,1.1,0.7,1.2l1,0.3C12.3,29.3,12.4,29.3,12.5,29.3z"/>
	<path class="st0" d="M20.9,31.6l1,0.3c0.1,0,0.2,0,0.3,0c0.4,0,0.8-0.3,1-0.7c0.1-0.5-0.2-1.1-0.7-1.2l-1-0.3
		c-0.5-0.1-1.1,0.2-1.2,0.7C20,30.9,20.4,31.5,20.9,31.6z"/>
	<path class="st0" d="M17,30.6c0.1,0,0.2,0,0.3,0c0.4,0,0.8-0.3,1-0.7c0.1-0.5-0.2-1.1-0.7-1.2l-1-0.3c-0.5-0.1-1.1,0.2-1.2,0.7
		c-0.1,0.5,0.2,1.1,0.7,1.2L17,30.6z"/>
	<path class="st0" d="M69.7,28.6c-1.2,0.1-2.2,0.7-3,1.6s-1.1,2.1-0.9,3.2c0.1,1.2,0.7,2.2,1.6,3c0.8,0.6,1.7,1,2.7,1
		c0.2,0,0.3,0,0.5,0c2.4-0.3,4.2-2.5,3.9-4.9C74.3,30.1,72.1,28.4,69.7,28.6z M70.5,35.4c-0.6,0.1-1.3-0.1-1.8-0.5
		c-0.5-0.4-0.8-1-0.9-1.6v0c-0.1-0.6,0.1-1.3,0.5-1.8s1-0.8,1.6-0.9c0.1,0,0.2,0,0.3,0c1.2,0,2.3,0.9,2.4,2.1
		C72.8,34.1,71.8,35.3,70.5,35.4z"/>
	<path class="st0" d="M62.9,34.7c0,0,0.1,0,0.1,0l1-0.1c0.5-0.1,0.9-0.6,0.9-1.1c-0.1-0.5-0.5-0.9-1.1-0.9l-1,0.1
		c-0.5,0.1-0.9,0.6-0.9,1.1C61.9,34.4,62.4,34.7,62.9,34.7z"/>
	<path class="st0" d="M58.8,33.2l-1,0.1c-0.5,0.1-0.9,0.6-0.9,1.1c0.1,0.5,0.5,0.9,1,0.9c0,0,0.1,0,0.1,0l1-0.1
		c0.5-0.1,0.9-0.6,0.9-1.1C59.8,33.5,59.3,33.1,58.8,33.2z"/>
	<path class="st0" d="M62.7,61.4c0.3-0.5,0.1-1.1-0.3-1.4l-0.9-0.5c-0.5-0.3-1.1-0.1-1.4,0.3c-0.3,0.5-0.1,1.1,0.3,1.4l0.9,0.5
		c0.2,0.1,0.3,0.1,0.5,0.1C62.2,61.9,62.5,61.7,62.7,61.4z"/>
	<path class="st0" d="M58.1,57.5l-0.9-0.5c-0.5-0.3-1.1-0.1-1.4,0.3c-0.3,0.5-0.1,1.1,0.3,1.4l0.9,0.5c0.2,0.1,0.3,0.1,0.5,0.1
		c0.3,0,0.7-0.2,0.9-0.5C58.7,58.4,58.5,57.7,58.1,57.5z"/>
	<path class="st0" d="M21.8,54.5L20.9,55c-0.5,0.2-0.7,0.8-0.5,1.3c0.2,0.4,0.5,0.6,0.9,0.6c0.1,0,0.3,0,0.4-0.1l0.9-0.4
		c0.5-0.2,0.7-0.8,0.5-1.3S22.3,54.3,21.8,54.5z"/>
	<path class="st0" d="M12.7,58.7l-0.9,0.4c-0.5,0.2-0.7,0.8-0.5,1.3c0.2,0.4,0.5,0.6,0.9,0.6c0.1,0,0.3,0,0.4-0.1l0.9-0.4
		c0.5-0.2,0.7-0.8,0.5-1.3C13.8,58.7,13.2,58.5,12.7,58.7z"/>
	<path class="st0" d="M17.3,56.6L16.4,57c-0.5,0.2-0.7,0.8-0.5,1.3c0.2,0.4,0.5,0.6,0.9,0.6c0.1,0,0.3,0,0.4-0.1l0.9-0.4
		c0.5-0.2,0.7-0.8,0.5-1.3C18.4,56.6,17.8,56.4,17.3,56.6z"/>
	<path class="st0" d="M63,16.7c0.1,0,0.3,0,0.4-0.1l0.9-0.4c0.5-0.2,0.7-0.8,0.5-1.3c-0.2-0.5-0.8-0.7-1.3-0.5l-0.9,0.4
		c-0.5,0.2-0.7,0.8-0.5,1.3C62.2,16.5,62.6,16.7,63,16.7z"/>
	<path class="st0" d="M58.4,18.7c0.1,0,0.3,0,0.4-0.1l0.9-0.4c0.5-0.2,0.8-0.8,0.5-1.3c-0.2-0.5-0.8-0.7-1.3-0.5L58,16.7
		c-0.5,0.2-0.8,0.8-0.5,1.3C57.6,18.4,58,18.7,58.4,18.7z"/>
</g>
</svg>
