<?xml version="1.0" encoding="utf-8"?>
<!-- Generator: Adobe Illustrator 22.1.0, SVG Export Plug-In . SVG Version: 6.00 Build 0)  -->
<svg version="1.1" id="Layer_2" xmlns="http://www.w3.org/2000/svg" xmlns:xlink="http://www.w3.org/1999/xlink" x="0px" y="0px"
	 viewBox="0 0 76.6 72.8" style="enable-background:new 0 0 76.6 72.8;" xml:space="preserve">
<style type="text/css">
	.st0{fill:#FFFFFF;}
</style>
<g>
	<path class="st0" d="M26.5,20H9c-0.6,0-1,0.4-1,1s0.4,1,1,1h17.4c0.6,0,1-0.4,1-1S27,20,26.5,20z"/>
	<path class="st0" d="M58.5,20h-4.3c-0.6,0-1,0.4-1,1s0.4,1,1,1h4.3c0.6,0,1-0.4,1-1S59.1,20,58.5,20z"/>
	<path class="st0" d="M67.6,20h-4.3c-0.6,0-1,0.4-1,1s0.4,1,1,1h4.3c0.6,0,1-0.4,1-1S68.2,20,67.6,20z"/>
	<path class="st0" d="M8.1,9.1c0.6,0,1-0.5,1-1s-0.5-1-1-1C7.5,7,7,7.5,7,8S7.5,9.1,8.1,9.1z"/>
	<path class="st0" d="M13.6,9.1c0.6,0,1-0.5,1-1s-0.5-1-1-1s-1,0.5-1,1S13.1,9.1,13.6,9.1z"/>
	<circle class="st0" cx="19.2" cy="8" r="1"/>
	<path class="st0" d="M73.1,0H3.5C1.6,0,0,1.6,0,3.5v58C0,63.4,1.6,65,3.5,65h21.8v6.8c0,0.6,0.4,1,1,1h24.3c0.6,0,1-0.4,1-1V65
		h21.6c1.9,0,3.5-1.6,3.5-3.5v-58C76.6,1.6,75.1,0,73.1,0z M3.5,2h69.6c0.8,0,1.5,0.7,1.5,1.5v10.1H2V3.5C2,2.7,2.7,2,3.5,2z
		 M49.5,70.8H27.3V48.5c0-0.4-0.3-0.8-0.6-0.9c-0.4-0.1-0.8,0-1.1,0.3l-1.7,1.9l-6.3-5.8l9.2-8.8l5.6-1.4c0.9,2.1,3.3,3.5,6.1,3.5
		s5.2-1.5,6.1-3.5l5.6,1.4l9.2,8.8L53,49.7l-1.7-1.9c-0.3-0.3-0.7-0.4-1.1-0.3c-0.4,0.1-0.6,0.5-0.6,0.9V70.8z M73.1,63H51.5V51.1
		l0.7,0.7c0.2,0.2,0.4,0.3,0.7,0.3c0.3,0,0.5-0.1,0.7-0.3l7.8-7.2c0.2-0.2,0.3-0.4,0.3-0.7s-0.1-0.5-0.3-0.7l-10.1-9.8
		c-0.1-0.1-0.3-0.2-0.5-0.3l-6.8-1.7c-0.3-0.1-0.6,0-0.8,0.1c-0.2,0.2-0.4,0.4-0.4,0.7c-0.3,1.6-2.2,2.9-4.4,2.9s-4.2-1.2-4.4-2.9
		c0-0.3-0.2-0.5-0.4-0.7c-0.2-0.2-0.5-0.2-0.8-0.1l-6.8,1.7c-0.2,0-0.3,0.1-0.5,0.3l-10.1,9.8c-0.2,0.2-0.3,0.5-0.3,0.7
		s0.1,0.5,0.3,0.7l7.8,7.2c0.2,0.2,0.5,0.3,0.7,0.3c0.3,0,0.5-0.1,0.7-0.3l0.7-0.7V63H3.5C2.7,63,2,62.3,2,61.5V15.6h72.6v45.9
		C74.6,62.3,73.9,63,73.1,63z"/>
</g>
</svg>
