<?xml version="1.0" encoding="utf-8"?>
<!-- Generator: Adobe Illustrator 22.1.0, SVG Export Plug-In . SVG Version: 6.00 Build 0)  -->
<svg version="1.1" id="Isolation_Mode" xmlns="http://www.w3.org/2000/svg" xmlns:xlink="http://www.w3.org/1999/xlink" x="0px"
	 y="0px" viewBox="-39 -1.9 104.7 103.1" style="enable-background:new -39 -1.9 104.7 103.1;" xml:space="preserve">
<style type="text/css">
	.st0{fill:#FFFFFF;}
</style>
<path class="st0" d="M10.1,26l-2.9,2.9v19.5l3.2,3h5.3l0,17.8h-4.3v-12H7.2v13.1l2.9,2.9l7.1,0l2.9-2.9L20,49.5l-3.1-3l-5.4,0l0-16
	l4.3,0l0,10.3l4.2,0l0-11.9L17.2,26L10.1,26L10.1,26z M21,32.3l0,4.1c1.2,0.1,2.9,0.3,2.9,0.3l0,27.6c1.4,0.2,3,0.4,4.3,0.6
	l-0.1-27.7c0,0,1.6,0.2,3.1,0.5v-4.1C27.7,32.9,24.5,32.6,21,32.3L21,32.3z M1.3,32.8c-1.8,0.2-3.7,0.5-5.6,0.8l-2.3,3l0,27.1
	l2.1,1.9c2.4-0.6,4.1-0.9,6.4-1.2l1.9-2.5l0.1-26.4L1.3,32.8L1.3,32.8z M34.7,34.2l-2.6,2.4l0,29.1c1.3,0.3,2.6,0.6,3.8,1V52.2
	l2.5,0.7v14.7c1.3,0.5,2.6,0.9,3.8,1.4V39.4l-2.2-4C38.2,34.9,36.6,34.6,34.7,34.2L34.7,34.2z M-8.7,34.4c-1.3,0.3-2.6,0.5-3.9,0.9
	L-12.7,68c1.3-0.4,2.5-0.9,4-1.3L-8.7,34.4L-8.7,34.4z M-14.7,35.9c-1.3,0.4-2.7,0.7-4,1.2v13.3l-2.6,1l0-13.5
	c-1.4,0.5-2.6,0.9-3.9,1.4l0,35c1.4-1,2.5-1.5,4.2-2.5l0-16c0,0,1.5-0.7,2.7-1.1l0,15.7c1.3-0.6,2.4-1.1,3.8-1.6L-14.7,35.9
	L-14.7,35.9z M43.6,36.3l0,4.2c0.3,0.1,3.2,1,3.2,1l0,29.4c1.4,0.7,2.6,1.4,3.9,2.2l0-30.2c0,0,3.5,1.3,3.7,1.5V40
	C51,38.5,47.2,37.4,43.6,36.3L43.6,36.3z M-0.1,37.3L0,60.6l-2.7,0.5l0.1-23.5L-0.1,37.3L-0.1,37.3z M36,38.6l2.4,0.6l0,9.3L36,48
	L36,38.6L36,38.6z M55.8,40.5L55.9,85c2.9,2.2,7.2,5.6,9.8,7.8v-5.3C63.9,86,60.1,83,60.1,83V66.8c0,0,3.8,2.1,5.6,3.1v-5.1
	c-1.7-1-5.7-3.2-5.7-3.2l0-14.8c0,0,3.8,1.9,5.7,3v-4.7C62.5,43.3,59.1,42,55.8,40.5L55.8,40.5z M-30.9,41.4c-2.1,1-4.1,1.9-6.1,3
	l-2,3.9v41.6l3.2,2.2c0.5-0.3,5.6-3.4,5.9-3.6l1.9-4.1l0-40.8L-30.9,41.4L-30.9,41.4z M-31.9,46.4l0,38.6l-3,2l0-39L-31.9,46.4
	L-31.9,46.4z"/>
<path class="st0" d="M-1.4-1.9l-19.3,19l0,14.9c-6,1.9-12.4,4.2-18.2,7.4v3.1c6.4-3.7,16-6.9,21.3-8.5V18.5L-0.1,1.2l27.6,0
	l17.4,17.2l0,15.6c6,1.7,15,5.1,20.8,8.3v-3.1C59.9,36.1,54.1,34,47.9,32l0-14.9L28.8-1.9L-1.4-1.9L-1.4-1.9z M7.8,20.1l-6.5,6.3
	v3.7c1.1-0.1,1.9-0.2,3-0.3v-2.2L9,23.2h9.4l4.5,4.5v2.2c1.1,0.1,2,0.2,3.1,0.4v-3.8l-6.3-6.3L7.8,20.1L7.8,20.1z M23,66.5v5
	L18.4,76l-9.5,0l-4.6-4.5v-5.1c-1.1,0.1-2,0.2-3,0.4v6l6.4,6.2l11.9,0.1l6.4-6.4l0-5.8C24.9,66.7,24.1,66.6,23,66.5L23,66.5z
	 M-17.7,72.5c-3.2,1.6-5.4,2.9-7.7,4.6v3.6c1.4-1.1,3.1-2.5,4.6-3.4v4.6l19.4,19.3l30,0L47.9,82v-4.5c2.2,1.3,4.1,2.6,5.9,4.1v-3.6
	c-2.6-2-5.5-3.9-8.9-5.5l0,8.1L27.5,98.2l-27.7,0l-17.5-17.4L-17.7,72.5L-17.7,72.5z"/>
<path class="st0" d="M1.1,4l-15.9,15.7v13.6c4.5-1.3,8.9-2,13.4-2.7v-5.4l8.1-7.9h14.2l7.9,7.9v5.3c4.5,0.7,8.8,1.5,13.4,2.7V19.8
	L26.3,4L1.1,4L1.1,4z M28.8,67.3l0,6.6l-7.9,8L6.5,81.9l-8-7.9v-6.6c-4.7,0.9-9.4,2.3-13.3,4v8.2L1,95.1l25.4,0.2l15.7-15.9l0-8.1
	C37.9,69.6,33.7,68.3,28.8,67.3L28.8,67.3z"/>
</svg>
