<?xml version="1.0" encoding="utf-8"?>
<!-- Generator: Adobe Illustrator 22.1.0, SVG Export Plug-In . SVG Version: 6.00 Build 0)  -->
<svg version="1.1" id="Layer_1" xmlns="http://www.w3.org/2000/svg" xmlns:xlink="http://www.w3.org/1999/xlink" x="0px" y="0px"
	 viewBox="0 0 75.7 69.3" style="enable-background:new 0 0 75.7 69.3;" xml:space="preserve">
<style type="text/css">
	.st0{opacity:0.5;fill:url(#XMLID_2_);}
	.st1{fill:none;stroke:#E7524E;stroke-width:2;stroke-linecap:round;stroke-linejoin:round;stroke-miterlimit:10;}
</style>
<linearGradient id="XMLID_2_" gradientUnits="userSpaceOnUse" x1="-1.058" y1="7.0525" x2="76.7632" y2="51.9826">
	<stop  offset="0" style="stop-color:#E7524E"/>
	<stop  offset="1" style="stop-color:#E7524E;stop-opacity:0"/>
</linearGradient>
<path id="XMLID_583_" class="st0" d="M68.6,59H7.1C3.2,59,0,55.8,0,51.9V7.1C0,3.2,3.2,0,7.1,0h61.4c3.9,0,7.1,3.2,7.1,7.1v44.8
	C75.7,55.8,72.5,59,68.6,59z"/>
<g id="XMLID_545_">
	<g id="XMLID_553_">
		<line id="XMLID_555_" class="st1" x1="25" y1="15.1" x2="31.3" y2="21.5"/>
		<line id="XMLID_554_" class="st1" x1="31.3" y1="15.1" x2="25" y2="21.5"/>
	</g>
	<g id="XMLID_550_">
		<line id="XMLID_552_" class="st1" x1="49.6" y1="34.6" x2="56" y2="40.9"/>
		<line id="XMLID_551_" class="st1" x1="56" y1="34.6" x2="49.6" y2="40.9"/>
	</g>
	<circle id="XMLID_549_" class="st1" cx="22.2" cy="33.7" r="4.8"/>
	<path id="XMLID_548_" class="st1" d="M33.2,37.8c0,0-1.6-11.7,11.5-10c9.3,1.2,10.2-11.5,10.2-11.5"/>
	<line id="XMLID_547_" class="st1" x1="58.3" y1="21.5" x2="54.8" y2="16.3"/>
	<line id="XMLID_546_" class="st1" x1="48.8" y1="18.9" x2="54.8" y2="16.3"/>
</g>
<g id="XMLID_542_">
	<line id="XMLID_544_" class="st1" x1="17.5" y1="68.3" x2="25.3" y2="57"/>
	<line id="XMLID_543_" class="st1" x1="58.2" y1="68.3" x2="50.4" y2="57"/>
</g>
</svg>
