<?xml version="1.0" encoding="utf-8"?>
<!-- Generator: Adobe Illustrator 22.1.0, SVG Export Plug-In . SVG Version: 6.00 Build 0)  -->
<svg version="1.1" id="Layer_1" xmlns="http://www.w3.org/2000/svg" xmlns:xlink="http://www.w3.org/1999/xlink" x="0px" y="0px"
	 viewBox="0 0 74.2 66.1" style="enable-background:new 0 0 74.2 66.1;" xml:space="preserve">
<style type="text/css">
	.st0{opacity:0.5;fill:url(#XMLID_2_);}
	.st1{fill:none;stroke:#E7524E;stroke-width:2;stroke-linecap:round;stroke-linejoin:round;stroke-miterlimit:10;}
</style>
<linearGradient id="XMLID_2_" gradientUnits="userSpaceOnUse" x1="-2.8238" y1="10.0097" x2="77.0398" y2="56.119">
	<stop  offset="0" style="stop-color:#E7524E"/>
	<stop  offset="1" style="stop-color:#E7524E;stop-opacity:0"/>
</linearGradient>
<path id="XMLID_336_" class="st0" d="M67.2,66.1H7c-3.9,0-7-3.1-7-7V7c0-3.9,3.1-7,7-7h60.2c3.9,0,7,3.1,7,7v52.1
	C74.2,63,71.1,66.1,67.2,66.1z"/>
<g id="XMLID_295_">
	<polygon id="XMLID_356_" class="st1" points="27,51.6 31.8,44.8 22,44.8 	"/>
	<line id="XMLID_355_" class="st1" x1="30.9" y1="19.9" x2="22.9" y2="19.9"/>
	<line id="XMLID_351_" class="st1" x1="31.8" y1="27" x2="31.8" y2="27.9"/>
	<line id="XMLID_276_" class="st1" x1="22" y1="35.1" x2="22" y2="44.8"/>
	<line id="XMLID_274_" class="st1" x1="31.8" y1="44.8" x2="31.8" y2="35.1"/>
	<polyline id="XMLID_346_" class="st1" points="31.8,36.8 31.8,14.6 22,14.6 22,35.9 	"/>
	<rect id="XMLID_343_" x="47.8" y="19.3" class="st1" width="4.5" height="4.2"/>
	<rect id="XMLID_342_" x="47.8" y="42.2" class="st1" width="4.5" height="4.2"/>
	<line id="XMLID_310_" class="st1" x1="47.8" y1="21.7" x2="36.2" y2="21.7"/>
	<line id="XMLID_313_" class="st1" x1="49.6" y1="41.3" x2="49.6" y2="24.4"/>
	<line id="XMLID_258_" class="st1" x1="36.2" y1="44" x2="47.8" y2="44"/>
</g>
</svg>
