<?xml version="1.0" encoding="utf-8"?>
<!-- Generator: Adobe Illustrator 22.1.0, SVG Export Plug-In . SVG Version: 6.00 Build 0)  -->
<svg version="1.1" id="Layer_1" xmlns="http://www.w3.org/2000/svg" xmlns:xlink="http://www.w3.org/1999/xlink" x="0px" y="0px"
	 viewBox="-198 372.1 197.5 96.7" style="enable-background:new -198 372.1 197.5 96.7;" xml:space="preserve">
<style type="text/css">
	.st0{fill:#9D2235;stroke:#000000;stroke-width:0.25;}
	.st1{fill:#FFFFFF;}
</style>
<g>
	<path class="st0" d="M-177.2,415.4c0.3,0.4,0.4,0.8,0.5,1.3c0.1,0.5,0.5,1.4,0.8,1.8l0.9,0.9l0,0l0.1,0.2l1.1,1l-0.1,0.1
		c0.6,0.5,1.7,1,2.3,1.3c1.5,0.6,3.5,1.2,4.7,2.5l0.6,0.6l0,0.9c0,2.5,1,4,2.3,6l0.3,0.5l0.1,0.6c0.3,3,1.5,4.6,3.2,6.7
		c3,3.9,3.4,8.9,2.6,13.9c-0.6,3.6-0.3,10.7,4.1,10.9c2.1,0.1,5.2-1.3,7.1-2.3c3.4-1.7,6.6-3.7,9.9-5.6c3.2-1.9,6.5-3.7,9.9-5.1
		l0.9-0.4c0,0,5-1.3,8.3,0.6c0,0-1-1.5,0.4-3.5c1.4-2,3.4-4.4,3.5-5.5c0-1.1,0-2,0-2s1.7-0.5,1.8-0.8c0,0-0.7-2.9-0.7-3.2
		c0,0,0.5-0.4,1.9-1c0,0,0-0.8-0.3-1.5c0,0,0.9-0.6,2.2-1c0,0-3-3.9-12.8,1c-9.8,4.9-11.3,7.8-20.3,7.3c0,0-2.1-1.5-2.5-1.9
		c-0.4-0.5-0.3-1.4-0.3-1.4s0.9,0.5,2,0.5c0,0-4.7-3.6-2.4-8.7c0,0,0,7.6,8.2,9.5c0,0,3.5-0.9,6-3.4l-1.2-0.4c0,0,2.3-2.2,2.5-3
		l-1.4,0c0,0,2.5-2.3,2.1-4.7c-0.3-2.3-1-5.2-4.4-8c0,0,10.7,3.4,4.3,15.6c0,0,2.7-1,3.5-2c0,0,2.6-6.6-3.3-12.7
		c-5.9-6.1-7.5-7-6.5-9.7c0,0-0.1,1.6,4.8,5.2c4.9,3.6,6.7,8.1,7.7,9.2c1,1.1,3.7,0.7,3.7,0.7c0-6.5,2.7-8.9,2.7-8.9
		c-2.3,8.9,0.6,12.4,0.6,12.4c10.4-0.6,8.5,4.4,8.5,4.4c1,1.4,7.7,3.9,14.6,5.3c6.8,1.4,7.2,3.4,7.2,3.4
		c-13,10.9-25.9,10.9-25.9,10.9c1.2,1.9,2.9,2.2,2.9,2.2c3.3,1.1,4.8,4.7,7.4,5.4c2.5,0.6,2.8,0.9,6.1-3.3c3.3-4.2,4.8-4,4.8-4
		s-2.5,2.6-4.2,5.7c-1.7,3.1-3.2,4.9-5.1,4.7c-1.9-0.2-4.4-2.1-7.5-4.6c-3.1-2.5-2.8-1.8-6.8-1.8c0,0-2.5-3.3-6.1-5.1
		c0,0-2.1-0.6-3.5-0.4l3.5,2.4c2.3,1.1,3.5,2.9,5.5,4.5l0,0l0,0c0.4,0.3,1.9,0.3,2.3,0.3c0.7,0,1.5,0,2.2,0.1l0.5,0.1l0.4,0.4
		c2.3,2.1,6.4,5.7,9.6,5.8c2.6,0.1,4.1-1.1,5.7-3.4l0.7-1c0,0,1.9-4.1,4.9-7c2.9-2.9,7.3-4.3,9.5-6.2c2.1-1.9,3.3-2.4,5.8-7.4
		c0,0-4-4.7-3.6-13.4c0,0,1.5,13.1,9.1,15.1l1,0.1c0.9,0.1,2,0.2,2.9,0.1c0.6-0.1,1.2-0.2,1.7-0.4c1.1-0.3,2.2-0.7,3.3-1.1
		c1.7-0.6,3.2-0.6,4.9-0.4c0.8,0.1,1.9,0.4,2.7,0.3c2.2-0.3,4.7-1.1,6.9-1.7c2.5-0.7,5.1-1.4,7.7-1.3c1.5,0.1,3,0.4,4.4,0.9
		c1.2,0.5,2.3,1.1,3.4,1.7c1.3,0.7,2.7,1.5,4,2.2c2.5,1.2,4.8-0.3,5.6-2.8c0,0.1-0.8,2,0.1-0.3c0,0.1,0,0.2-0.1,0.2
		c0-0.1,0.4-2.6-0.5-3.3c0,0-0.2,2-2.1,1.9c-1.8-0.1-6.1-1.9-12.2-7c0,0-4.1,0.3-5.6-0.4c-1.5-0.7-3.9-4.1-5.6-4.2
		c-1.7-0.1-5.1-0.6-5.2-3.1c-0.1-2.5,5.5-3.8,9.4-2.5c0,0-0.2-4.3-2.4-7.2c0,0-0.9-1.5,0.5-2.1c1.4-0.6,5.3,4.3,6.2,7.4
		c0,0,3-4.6,6.5-6.3c0,0-1,4.5-1,7.1c0,2.6-0.9,4.6-0.9,4.6s2.6,1,7.7,5.5l5.1,4.5l2.7,1c0.4,0.1,1.5-0.9,1.7-1.1
		c1.4-1.3,2.8-2.9,4.1-4.4c0.6-0.7,1.3-1.3,2-1.8c-0.8,0.1-2,0.5-3.3,1.5c-0.4,2-5.2,5.5-5.5,3.2c-0.2-1.5,4.8-4.8,10.3-5.6
		c0.8-0.5,1.6-0.9,2.4-1.4c0.3-0.2,1.1-0.7,1.4-1c0.6-0.8,0.7-2.6,0-3.3c-1.2-1.1-2.7-0.9-4.1-0.3l-1.1,0.4c0,0-2.5,1-6.5,5
		c0,0,0.8-3.2,4.4-6.5c-0.5-0.1-1.1-0.2-1.5-0.2c-1.6,0.4-4,1.5-6.9,4.6c0,0,0.4-3.4,3.6-6.3c-2.2-1.7-4.4-3.2-6.8-4.7
		c-2.1-1.3-4.3-2.4-6.3-3.8c-2.5-1.7-4.4-3.7-6.3-6.2c-0.7-1-1.5-2-2.2-3c-2.3-3-4.6-5.8-7.3-8.5c-2.5-2.5-5.2-4.8-8-6.9l0,1.4
		l-3.9-3.4l-0.1,1.9c0,0-1.7-1.8-3.6-2.8v1.1c0,0,5,2.7,5.5,6.9c0,0-2.4-4.7-10.1-8.9c-3.6-1.7-4.2-3.1-7.3-6.3
		c0.1,4.2,0.5,7.3,1.2,9.1c0,0,2.8,13.7,10,12.6c0,0-1.6,2.1-4.3,0.1c-2.7-2-6.6-8.4-15.8-12.2l0.5,2.1c0,0-2.7-1.6-6-2.8l0.6,1.8
		c0,0-2.7-1.6-6.4-2.7l0.9,1.7c0,0-3.3-0.9-5.8-1.1l1.1,1.6c0,0-4.7-0.7-6.3-0.5l1.4,1.6c0,0-8.2,0.1-11.7,1.3l2.1,2.2
		c0,0-5.3-0.1-15.1,4c0,0,6.4-3.9,11.8-5.1l-2.3-2.2c0,0,7-1.7,11.9-1.9l-1.6-2c0,0,4,0.2,6.1,0.2l-1.1-1.8c0,0,5,0.6,5.9,0.8
		l-1-1.9c0,0,4.3,1.2,5.7,1.7l-0.6-1.9c0,0,4.9,2.2,5.5,2.5c0,0-0.1-1.2-0.4-2.1c0,0,3.4,1.7,5.4,3c0,0-0.3-2.7-0.6-3
		c0,0,2.7,1.3,5.3,3.7c0,0-0.2-1.7-0.6-2.5c0,0,4,3.4,4.4,4c0,0-0.2-1.5-0.5-2.5l-1.8-1.6c-1.4-1.3-2.9-2.5-4.4-3.6l0.4,2.8
		l-3.7-2.8c-0.7-0.6-1.5-1.1-2.3-1.5l0.5,2.5L-87,378c-0.7-0.3-1.4-0.6-2.1-0.9l0.7,2.2l-3.8-1.4c-0.8-0.3-1.6-0.5-2.4-0.8l1,2.6
		l-3.8-1.1c-0.8-0.3-1.7-0.4-2.6-0.6l1.3,2.4l-4-0.7c-0.9-0.1-1.7-0.2-2.6-0.2l1.6,2.4l-4.3-0.4c-0.8-0.1-1.7-0.1-2.5-0.1l1.4,2
		l-4,0c-0.7,0-1.4,0-2,0.1l1.9,2.1l-4.5,0.1c-0.8,0-1.7,0.1-2.5,0.2l1.3,1.5l-3.9,0.5c-0.7,0.1-1.3,0.2-2,0.3l1.5,1.6l-4.4,0.3
		c-0.7,0-1.3,0.1-2,0.2l1.6,1.6l-4.7,0.3c-0.6,0-1.2,0.1-1.8,0.2l1.7,1.8l-4.5,0.3c-10.4,0.7-19.2,5.4-25.2,15.2l-1.4,2.2l0,0
		c-1.1,1.4-2.1,5.6-4.9,4.9c-3-0.7-3.2-2.5-3.1-2.9c0.1-0.5,0.5-1.1,1.2-1.1c0.7,0,1,0.3,1.2,0.9c0.1,0.6-0.2,1.2-0.2,1.2
		c2.3,2.7,4.7-3.3,4.7-3.8c0.1-0.4-0.9-1.6-1.1-1.7c-4.5-4.5-9.9-1.8-10.9,5L-177.2,415.4z M-49,404.2c1.2,0,1.4,0.3,1.5,0.4
		c0.1,0.1,0.9,0,0.9,0s-0.1-0.6-0.7-0.8C-47.9,403.7-49,404.2-49,404.2L-49,404.2z M-47.7,409.5c-1.1-2.2-0.8-4.1-0.8-4.1l-0.9-0.2
		C-49.3,408.2-47.7,409.5-47.7,409.5L-47.7,409.5z M-44.5,407c-0.2-0.6-1.7,1.1-0.3,2c0,0-0.3-0.3-0.1-0.9
		C-44.6,407.5-44.3,407.6-44.5,407L-44.5,407z M-188.9,415.9c4.6,0.9,4.6,1.9,4.6,1.9c-1.1,0.7-3.6-0.4-6-0.6s-3.6,1.8-3.6,1.8
		c2.6,0.2,4.3,1.5,5.5,2.5c1.9,1.6,4.9,1.6,7,0.6c-6.1-1-6-2.1-7.5-2.8c-1.4-0.7-2.6-0.8-2.6-0.8c2.9-0.6,3,0.7,7.2,2.1
		c4.2,1.4,7.1-0.3,7.1-0.3c-0.4-0.4-1.2-1.9-1.4-3.1c-0.2-1.2-3.7-2.8-6.2-2.9C-187.4,414-188.9,415.9-188.9,415.9L-188.9,415.9z
		 M-185.9,415.5c3-0.4,5.3,1.3,5.3,1.3c-1.3,0.5-2.3,0.4-2.3,0.4C-183.7,416.3-185.9,415.5-185.9,415.5z M-186,419.2
		c0,0,3.8-1.2,6.1-0.9c0,0,0.2,1,0.6,1.4C-179.3,419.7-182,420.6-186,419.2L-186,419.2z M-119.8,449.4c0,0-3.5-2.4-12.6,2.7
		c-9.1,5.2-18.4,11.4-21.6,10.6c-3.2-0.8-2.8-5.7-2.5-7.7c0.3-2,1.1-10-0.9-13.5c-2-3.4-5.2-5.7-4.7-9.8c0,0-2.2-2.1-2.8-5.4
		c-0.6-3.4-1.2-4-5.2-5.6c-3.9-1.6-7-4-4.8-9.2c0,0-0.6,2.7,0.4,4.1c1,1.4,3.2,3.5,5.7,3.2c2.5-0.4,3.6-0.7,5.3-4.4
		c1.7-3.7,6.8-13,18.2-16.4c0,0-7.3,3.4-9.7,7.7l-0.3-1.1c0,0-2.1,3.4-2.6,5.3l-0.7-1.4c0,0-0.9,2.1-1,4.7l-1-1.1c0,0-0.1,5,0.2,6.8
		l-1.7-2.7c0,0-0.1,3.6,0.6,5c0,0-1.1,2.8,0.4,5.4c0,0-0.2,3.6,2.6,5.9c0,0-0.6,1.6,0.3,3.4c0.8,1.8,4.3,5.3,5.5,8.9l-1.7-0.8
		c0,0,1.9,3.8,1.6,6.9l-1.2-1.4c0,0,1,3.4,0.2,6.4c0,0-0.5-0.9-0.8-0.9c0,0-0.7,5.4,1.3,5.6c2,0.3,11.5-5.3,11.8-5.5
		c0,0,0.1-0.4-0.8-0.4c0,0,2.3-2,5-2c0,0,0-0.3-0.9-0.6c0,0,2-1.7,5.8-1.9c0,0-0.4-0.5-1.4-0.8c0,0,2.4-1.3,5.8-1.2
		c0,0-0.5-0.6-1.3-1c0,0,2.8-0.9,5.9-0.4l-1.2-1.5C-124.8,445.7-120.6,446.5-119.8,449.4L-119.8,449.4z M-51,424.4
		c0,0-0.8-5,10.2-3.9C-40.7,420.5-52.1,416.9-51,424.4L-51,424.4z M-55.2,397.9c0,0,5.1-0.8,8.7,3.4c3.6,4.2,6.3,8.6,10.9,9.3
		c0,0-3.6,0.6-5.3-0.5c0,0-1.3,1.1-4.1,1.4c0,0,0.5,0.5,1,0.7c0,0-6,2.3-6.6-8.7c0,0-1.7-2.3-3-2.9c0,0,2.7,0.6,4.2,2.1h1
		C-48.3,402.7-49.5,399.3-55.2,397.9L-55.2,397.9z M-46.9,394.1c0,0,4.9,1.9,10,10c0,0-4.3-1.1-8.5-5.4c0,0,2,0.4,3,0.9
		C-42.5,399.6-45.6,396-46.9,394.1L-46.9,394.1z M-142.1,443.8c0,0,5.2,0.9,12.9-3.2c7.7-4,12.9-7,16.4-6.7l0,1c0,0-2.7,0-1.3,4.3
		c0,0-2,0.4-1.4,2.6c0,0-0.9-0.9-0.8-1.5c0-0.7,0.6-1.1,0.5-1.9c-0.2-0.9-0.4-0.6-0.4-1.9c0,0-5,2-9.9,4.6
		C-131,443.6-136.6,445.7-142.1,443.8L-142.1,443.8z M-71.7,418.3c0,0-1.3,4.4,1.7,7.1c0,0-0.1,3.3,2.5,4.2c0,0,0.5,2.7,2.8,3.4
		c0,0,1.4,2.9,4.3,2.3c0,0,1.2,2.7,5.9,2.1c0,0-1-1.5-0.9-2.5c0,0,3.1,3.3,6.9,2.7c3.9-0.6,13-4.7,20.1,1c0,0-6-2.8-11.2-1.4
		c-5.2,1.4-9.8,3-13.1,2.2c-3.3-0.8-8.9,1.9-8.9,1.9s-7.3,1.4-9.7-5.1c0,0,2.8,1.9,4.5,0.5c0,0-4.8-2.9-4.7-8.2
		C-71.6,428.4-74.9,423.6-71.7,418.3L-71.7,418.3z M-90.9,462.7c2.5,0.4,7,0.9,8.7-0.4c1.5-1.3,2.2-2.9,3.1-4.7
		c0.5-1,1.6-1.7,2.5-2.2c0.9-0.5,1.9-1,2.8-1.6c0.7-0.4,1.5-1,2-1.6c1.1-1.3,1.9-2.6,2.5-4.3c0.3-0.9,0.7-2.1,1.1-3l-1.1-0.5
		c0,0-1.7,5.5-4.6,7.2c-2.9,1.8-6.2,3.4-6.8,5.7c-0.6,2.3-2.2,5.4-9.1,3.5L-90.9,462.7z M-172.5,409.5c0,0,3.9-1.2,5.7,2.1l-0.4,1.2
		C-167.2,412.8-168.4,409.2-172.5,409.5L-172.5,409.5z M-101.1,401c0,0,5.2-2.1,9.2-1.7c0,0-0.1-0.8-0.9-1.8c0,0,4.8,0.1,9.8,3.7
		c0,0,0.1-1.6-0.4-3.1c0,0,2.9,2.3,4.4,4.9v-2.2c0,0,3.4,4.7,4.5,8.7c0,0-3.3,3.1-2.8,10.3c0,0-2-3.9-0.4-9.3l-0.7-2.6l-0.7,2
		c0,0-1.7-4.1-2.8-5.8c0,0,0,1-0.2,2c0,0-3-3.8-8.2-5.6c0,0,0.1,0.5,0.4,1.1C-90,401.7-93.1,400-101.1,401L-101.1,401z M-66.4,383.7
		c0,0,7.1,4.6,10.5,12.2c0,0-1.8-1.3-2.5-1.2c0,0-0.3-0.2,0,1.7c0,0-1.2-1.3-2.3-1.4c0,0-0.3-0.5-0.2,1.3c0,0-3.3-1.5-2.6-5.6
		c0,0,0.1-0.4-0.3-0.9c-0.3-0.5-0.6-0.7-0.8-2.8C-64.5,387-65.7,385.7-66.4,383.7L-66.4,383.7z M-60.9,380.4
		c-1.1-1.5-2.2-3.1-3.5-4.8l0,4.1c0.8,0.5,2.4,1.4,2.8,1.7l0-1.4C-61.6,380-61.2,380.1-60.9,380.4"/>
	<path d="M-65.2,372.1l-0.8,8c-2.7-2.1-5.1-4.4-7.2-6.8l0.5,7.4c-2.3-2.1-4.9-4.2-8.1-5.9l0.3,2.2c-1.9-1.5-4-2.6-6.2-3.4l0.5,2.4
		c-2.2-1.1-4.1-1.7-6-2.2l0.7,2c-2.2-0.8-4.2-1.3-6.2-1.7l0.9,2.4c-2.2-0.6-4.4-0.9-6.6-0.8l1,1.9c-2.2-0.4-4.4-0.3-6.6,0l1.2,1.8
		c-2.1-0.2-4.2,0-6.3,0.5l1,1.5c-2,0-4.1,0.3-6.2,0.7l1.4,1.6c-2.1,0.1-4.2,0.5-6.3,1.1l1,1.2c-2,0.3-4,0.7-5.7,1.2l1,1
		c-1.8,0.1-3.8,0.5-6.1,1.2l1,0.9c-2,0.1-3.9,0.5-5.8,1l1.2,1.2c-11.5,0.8-20.6,6.1-26.7,16.1c-5.6-6.6-13.4-3.5-14.7,5.5
		c-3.7-3-8.6-3.2-11.7,1c-2-0.6-4.5,2-7.3,5.9c2.4-0.1,5.1-0.3,6.4,0.7c3.1,2.4,5.2,2.9,7.2,3c2.7,0.2,6.2-2.3,8.8-3
		c1.7,2.1,5.9,2.6,7.4,4.2c0,3,1,4.8,2.7,7.3c0.4,4,2.4,6.3,3.6,7.9c1.8,2.3,3.2,5.9,2.2,12.1c-1,5.9,0.5,13.2,5.9,13.5
		c6.3,0.4,18.1-9.2,27.7-13.1l5.5,3.8c2.2,1,3,2.6,5.3,4.3c1.3,1.1,3.6,0.5,5.4,0.8c5.3,4.9,8.4,6.2,10.7,6.3
		c3.1,0.1,5.2-1.2,7.3-4.2c5.7,1,9.2,0.8,10.9-0.7c1.8-1.5,2.6-3.2,3.7-5.4c0.5-1.1,4.9-2.6,7-4.9c3.1-3.5,3.3-7,4.1-7.9
		c3.6,0.3,3.6,0.3,8.7-1.4c3.2-1.1,5.3,0.3,7.2,0.1c4.2-0.5,9.8-3.2,14.2-2.9c4.3,0.2,6.1,2.1,11.2,4.6c4.5,2.2,8.8-1.7,8.5-7
		c1.9,0.7,4.4-2.2,7.8-6.1c2.1-2.4,6.2-3.9,7.3-5.3c1.3-1.7,1.2-4.9-0.3-6.4c-1.6-1.5-3.6-1.7-6-0.7c-0.7-0.7-1.8-1.4-4.7-1.4
		c-10.7-8.8-15-7.8-20.7-15.7c-5.2-7-9.9-13.3-20.8-20.8l0,1.1l-3.4-2.8l-0.1,0.9C-60.2,379.2-63,375.9-65.2,372.1L-65.2,372.1z
		 M-198,421.1L-198,421.1L-198,421.1C-198,421.1-198,421.1-198,421.1z M-64.4,375.6c1.3,1.7,2.4,3.3,3.5,4.8
		c-0.3-0.2-0.7-0.4-0.7-0.4l0,1.4c-0.4-0.3-2-1.2-2.8-1.7L-64.4,375.6L-64.4,375.6z M-71.7,376.5c3.1,3.2,3.7,4.6,7.3,6.3
		c7.7,4.2,10.1,8.9,10.1,8.9c-0.4-4.2-5.4-6.9-5.4-6.9v-1.1c1.9,1,3.6,2.8,3.6,2.8l0.1-1.9l3.9,3.4l0-1.4c2.8,2.1,5.5,4.4,8,6.9
		c2.6,2.6,5,5.5,7.2,8.5c0.7,1,1.5,2,2.2,3c1.8,2.5,3.8,4.5,6.3,6.2c2,1.4,4.2,2.6,6.3,3.8c2.4,1.4,4.6,3,6.8,4.7
		c-3.2,2.9-3.6,6.3-3.6,6.3c2.8-3.1,5.3-4.2,6.9-4.6c0.5,0,1,0.1,1.5,0.2c0,0,0,0,0,0l0.1,0c0,0-0.1,0-0.1,0
		c-3.6,3.3-4.3,6.5-4.3,6.5c4-4,6.5-5,6.5-5l1.1-0.4c1.4-0.6,2.9-0.8,4.1,0.3c0.7,0.7,0.6,2.5,0.1,3.3c-0.2,0.3-1.1,0.8-1.4,1
		c-0.8,0.5-1.6,0.9-2.4,1.4c-5.4,0.8-10.4,4.1-10.3,5.6c0.2,2.4,5.1-1.2,5.5-3.2c1.4-0.9,2.6-1.3,3.4-1.5l0.1-0.1
		c-0.7,0.5-1.5,1.1-2.1,1.8c-1.3,1.5-2.7,3.1-4.1,4.4c-0.3,0.2-1.4,1.2-1.7,1.1l-2.7-1l-5.1-4.5c-5.1-4.5-7.7-5.5-7.7-5.5
		s0.9-2,0.9-4.6c0-2.6,1-7.1,1-7.1c-3.5,1.7-6.5,6.3-6.5,6.3c-0.9-3.1-4.8-8-6.2-7.4c-1.4,0.6-0.5,2.1-0.5,2.1
		c1.2,1.7,1.8,3.7,2.1,5.2l0,0h0c0.2,1.2,0.3,2,0.3,2c-3.9-1.3-9.4,0-9.4,2.5c0.1,2.5,3.5,3,5.2,3.1c1.7,0.1,4.1,3.6,5.6,4.2
		c1.5,0.7,5.6,0.4,5.6,0.4c6.1,5.2,10.4,6.9,12.2,7c1.8,0.1,2.1-1.9,2.1-1.9c0.8,0.6,0.6,2.7,0.5,3.2l0-0.1c-0.7,2.6-3.1,4.3-5.7,3
		c-1.4-0.7-2.7-1.4-4-2.2c-1.1-0.6-2.2-1.2-3.4-1.7c-1.4-0.6-2.9-0.9-4.4-0.9c-2.5-0.1-5.2,0.6-7.7,1.3c-2.2,0.6-4.6,1.4-6.9,1.7
		c-0.7,0.1-1.9-0.2-2.7-0.3c-1.7-0.3-3.2-0.2-4.9,0.4c-1.1,0.4-2.2,0.8-3.3,1.1c-0.6,0.2-1.1,0.3-1.7,0.4c-0.9,0.1-2,0-2.9-0.1
		l-1-0.1c-7.6-2-9.1-15.1-9.1-15.1c-0.4,8.6,3.6,13.4,3.6,13.4c-2.5,5-3.7,5.5-5.8,7.4c-2.1,1.9-6.5,3.3-9.5,6.2
		c-2.9,2.9-4.9,7-4.9,7l-0.7,1c-1.6,2.3-3.1,3.5-5.7,3.4c-3.2-0.1-7.3-3.7-9.6-5.8l-0.4-0.4l-0.5-0.1c-0.7-0.1-1.4-0.1-2.2-0.1
		c-0.4,0-1.9,0-2.3-0.3l0,0l0,0c-2-1.5-3.1-3.3-5.5-4.5l-3.5-2.4c1.5-0.2,3.5,0.4,3.5,0.4c3.5,1.8,6.1,5.1,6.1,5.1
		c4,0,3.7-0.7,6.8,1.8c3.1,2.5,5.7,4.3,7.5,4.6c1.8,0.2,3.4-1.5,5.1-4.6c1.7-3.1,4.2-5.7,4.2-5.7s-1.5-0.2-4.8,4
		c-3.3,4.2-3.5,4-6.1,3.3c-2.5-0.6-4-4.3-7.4-5.4c0,0-1.6-0.4-2.9-2.2c0,0,12.9,0,25.9-10.9c0,0-0.4-2-7.2-3.4
		c-6.8-1.4-13.5-4-14.6-5.3c0,0,1.8-5.1-8.5-4.4c0,0-3-3.5-0.6-12.4c0,0-2.7,2.4-2.7,8.9c0,0-2.7,0.4-3.7-0.7
		c-1-1.1-2.8-5.6-7.7-9.2c-4.9-3.6-4.8-5.2-4.8-5.2c-1,2.7,0.6,3.6,6.5,9.7c5.9,6.1,3.3,12.7,3.3,12.7c-0.9,0.9-3.5,2-3.5,2
		c6.4-12.2-4.3-15.6-4.3-15.6c3.4,2.8,4.1,5.6,4.4,8c0.3,2.3-2.1,4.7-2.1,4.7l1.4,0c-0.2,0.8-2.5,3-2.5,3l1.2,0.4
		c-2.5,2.5-6,3.4-6,3.4c-8.2-1.9-8.2-9.5-8.2-9.5c-2.3,5.2,2.4,8.7,2.4,8.7c-1.1,0-2-0.5-2-0.5s-0.1,0.9,0.3,1.4
		c0.4,0.5,2.5,1.9,2.5,1.9c8.9,0.5,10.5-2.4,20.3-7.3c9.8-4.9,12.8-1,12.8-1c-1.3,0.4-2.2,1-2.2,1c0.3,0.7,0.3,1.5,0.3,1.5
		c-1.4,0.7-1.9,1-1.9,1c0,0.3,0.7,3.2,0.7,3.2c-0.1,0.2-1.8,0.8-1.8,0.8s0,0.9,0,2c0,1.1-2,3.5-3.5,5.5c-1.4,2-0.4,3.5-0.4,3.5
		c-3.3-1.9-8.3-0.6-8.3-0.6l-0.9,0.4c-3.4,1.4-6.7,3.2-9.9,5.1c-3.3,1.9-6.5,3.9-9.9,5.6c-1.9,1-5,2.4-7.1,2.3
		c-4.4-0.2-4.7-7.3-4.1-10.9c0.8-5,0.4-10-2.6-13.9c-1.6-2.1-2.9-3.8-3.2-6.7l-0.1-0.6l-0.3-0.5c-1.4-1.9-2.3-3.5-2.3-6l0-0.9
		l-0.6-0.6c-1.2-1.3-3.2-1.9-4.7-2.5c-0.6-0.3-1.7-0.7-2.3-1.3l0.1-0.1l-1.1-1l-0.1-0.2l0,0l-0.9-0.9c-0.3-0.4-0.7-1.3-0.8-1.8
		c-0.1-0.5-0.2-0.9-0.5-1.3l0.1-0.9c1-6.8,6.4-9.5,10.9-5c0.1,0.1,1.1,1.3,1.1,1.7c-0.1,0.5-2.4,6.5-4.7,3.8l0,0
		c0,0,0.4-0.6,0.2-1.2c-0.1-0.6-0.4-1-1.2-1c-0.7,0-1.2,0.6-1.2,1.1c-0.1,0.5,0.1,2.2,3.1,2.9c2.8,0.7,3.8-3.5,4.9-4.9l0,0l1.4-2.2
		c6-9.8,14.8-14.4,25.2-15.2l4.5-0.3l-1.7-1.8c0.6-0.1,1.2-0.2,1.8-0.2l4.7-0.3l-1.6-1.6c0.7-0.1,1.3-0.2,2-0.2l4.4-0.3l-1.5-1.6
		c0.7-0.1,1.3-0.2,2-0.3l3.9-0.5l-1.3-1.5c0.8-0.1,1.7-0.2,2.5-0.2l4.5-0.1l-1.9-2.1c0.7-0.1,1.4-0.1,2-0.1l4,0l-1.4-2
		c0.8,0,1.7,0,2.5,0.1l4.3,0.4l-1.6-2.4c0.9,0,1.7,0.1,2.6,0.2l4,0.7l-1.3-2.4c0.9,0.1,1.8,0.3,2.6,0.6l3.8,1.1l-1-2.6
		c0.8,0.2,1.6,0.5,2.4,0.8l3.8,1.4l-0.7-2.1c0.7,0.3,1.4,0.6,2.1,0.9l3.6,1.8l-0.5-2.5c0.8,0.5,1.5,1,2.3,1.5l3.7,2.8l-0.4-2.8
		c1.5,1.1,3,2.3,4.4,3.6l1.8,1.6c0.2,1,0.5,2.5,0.5,2.5c-0.4-0.5-4.4-4-4.4-4c0.4,0.7,0.6,2.5,0.6,2.5c-2.5-2.4-5.2-3.7-5.2-3.7
		c0.3,0.3,0.6,3,0.6,3c-2-1.3-5.4-3-5.4-3c0.3,0.9,0.4,2.1,0.4,2.1c-0.5-0.3-5.5-2.5-5.5-2.5l0.6,1.9c-1.3-0.5-5.7-1.7-5.7-1.7
		l1,1.9c-0.9-0.2-5.9-0.8-5.9-0.8l1.1,1.8c-2.1,0-6.1-0.2-6.1-0.2l1.6,2c-4.9,0.2-11.9,1.9-11.9,1.9l2.2,2.2
		c-5.4,1.2-11.8,5.1-11.8,5.1c9.8-4,15.1-4,15.1-4l-2.1-2.2c3.5-1.2,11.7-1.3,11.7-1.3l-1.4-1.6c1.5-0.2,6.3,0.5,6.3,0.5l-1.1-1.6
		c2.5,0.2,5.8,1.1,5.8,1.1l-0.9-1.7c3.7,1.1,6.4,2.7,6.4,2.7l-0.6-1.8c3.3,1.2,6,2.8,6,2.8l-0.5-2.1c9.2,3.8,13.2,10.1,15.8,12.2
		c2.7,2,4.3-0.1,4.3-0.1c-7.2,1.1-10-12.6-10-12.6C-71.2,383.7-71.6,380.6-71.7,376.5L-71.7,376.5z M-40.7,420.5L-40.7,420.5
		c0,0-11.3-3.6-10.2,3.9C-51,424.3-51.6,419.4-40.7,420.5z M-66.4,383.7c0.7,2,1.9,3.3,1.9,3.3c0.2,2,0.4,2.3,0.8,2.8
		c0.3,0.5,0.3,0.9,0.3,0.9c-0.7,4.1,2.6,5.6,2.6,5.6c-0.2-1.8,0.2-1.3,0.2-1.3c1,0,2.2,1.4,2.2,1.4c-0.2-1.9,0-1.7,0-1.7
		c0.6-0.1,2.4,1.2,2.4,1.2C-59.3,388.3-66.4,383.7-66.4,383.7z M-46.9,394.1c1.4,1.9,4.5,5.5,4.5,5.5c-1-0.5-3-0.9-3-0.9
		c4.2,4.3,8.4,5.4,8.4,5.4C-42,396-46.9,394.1-46.9,394.1z M-37,404.1L-37,404.1L-37,404.1L-37,404.1z M-92.8,397.4
		c0.8,1,0.9,1.8,0.9,1.8c-4-0.4-9.2,1.7-9.2,1.7c8-0.9,11.1,0.7,11.1,0.7c-0.3-0.6-0.4-1.1-0.4-1.1c5.2,1.8,8.2,5.6,8.2,5.6
		c0.2-1,0.2-2,0.2-2c1.1,1.7,2.8,5.8,2.8,5.8l0.7-2l0.7,2.6c-1.6,5.3,0.4,9.3,0.4,9.3c-0.5-7.3,2.8-10.3,2.8-10.3
		c-1.1-4-4.5-8.7-4.5-8.7v2.2c-1.5-2.7-4.4-4.9-4.4-4.9c0.4,1.5,0.4,3.1,0.4,3.1C-88,397.5-92.8,397.4-92.8,397.4L-92.8,397.4z
		 M-54.3,397.8c-0.5,0-0.8,0.1-0.8,0.1c5.7,1.4,6.9,4.8,6.9,4.8h-1c-1.5-1.5-4.2-2.1-4.2-2.1c1.3,0.6,3,2.9,3,2.9
		c0.6,11,6.6,8.7,6.6,8.7c-0.5-0.1-1-0.7-1-0.7c2.8-0.2,4.1-1.4,4.1-1.4c1.6,1.1,5.2,0.5,5.2,0.5c-4.6-0.7-7.2-5.1-10.9-9.3v0
		C-49.2,398.1-52.7,397.8-54.3,397.8L-54.3,397.8z M-145.2,398c-11.4,3.5-16.5,12.8-18.2,16.4c-1.7,3.7-2.8,4-5.3,4.4
		c-2.5,0.4-4.6-1.8-5.7-3.2c-1-1.4-0.4-4.1-0.4-4.1c-2.2,5.2,0.9,7.6,4.8,9.2c3.9,1.6,4.5,2.2,5.2,5.6c0.6,3.4,2.8,5.4,2.8,5.4
		c-0.5,4.1,2.7,6.3,4.7,9.8c2,3.4,1.2,11.5,0.9,13.5c-0.3,2-0.7,6.9,2.5,7.7c3.2,0.8,12.6-5.4,21.6-10.6c9.1-5.2,12.6-2.7,12.6-2.7
		c-0.9-2.9-5.1-3.7-5.1-3.7l1.2,1.5c-3.1-0.6-5.9,0.4-5.9,0.4c0.8,0.4,1.3,1,1.3,1c-3.4-0.1-5.8,1.2-5.8,1.2c1,0.3,1.5,0.8,1.5,0.8
		c-3.8,0.2-5.8,1.9-5.8,1.9c1,0.3,0.9,0.6,0.9,0.6c-2.7,0-5,2-5,2c0.9,0,0.8,0.4,0.8,0.4c-0.3,0.1-9.8,5.7-11.8,5.5
		c-2-0.3-1.3-5.6-1.3-5.6c0.2,0,0.8,0.9,0.8,0.9c0.8-3-0.2-6.4-0.2-6.4l1.2,1.4c0.3-3.1-1.6-6.9-1.6-6.9l1.7,0.8
		c-1.1-3.6-4.6-7.1-5.5-8.9c-0.8-1.8-0.3-3.4-0.3-3.4c-2.8-2.3-2.6-5.9-2.6-5.9c-1.5-2.6-0.4-5.4-0.4-5.4c-0.7-1.4-0.6-5-0.6-5
		l1.7,2.7c-0.3-1.8-0.2-6.8-0.2-6.8l1,1.1c0.1-2.7,1-4.7,1-4.7l0.7,1.4c0.5-1.9,2.6-5.3,2.6-5.3l0.3,1.1
		C-152.6,401.4-145.2,398-145.2,398L-145.2,398z M-47.5,403.8c0.1,0,0.2,0,0.2,0c0.6,0.2,0.7,0.8,0.7,0.8s-0.8,0.1-0.9,0
		c-0.1-0.1-0.3-0.4-1.5-0.4C-49,404.2-48.1,403.8-47.5,403.8z M-49.4,405.2l0.9,0.2c0,0-0.3,1.9,0.8,4.1
		C-47.7,409.5-49.3,408.2-49.4,405.2z M-46.7,405.6c1,0.1,1.3,0.1,1.4,0.5c0,0.4-1.2,0.7-0.7,2.5c0.5,1.8,3,1.4,3.3,0.2l0.7,0.8
		c0,0-4.8,3.8-5.6-3.7C-47.7,405.8-47.7,405.5-46.7,405.6L-46.7,405.6z M-44.6,406.9c0.1,0,0.1,0,0.1,0.1c0.2,0.6-0.2,0.5-0.4,1.1
		s0.1,0.9,0.1,0.9C-46,408.2-45,406.8-44.6,406.9L-44.6,406.9z M-171.2,409.3c-0.8,0-1.3,0.2-1.3,0.2c4.1-0.2,5.3,3.3,5.3,3.3
		l0.4-1.2C-168,409.5-169.9,409.2-171.2,409.3z M-185.3,414.2c0.2,0,0.3,0,0.5,0c2.5,0.1,6.1,1.7,6.2,2.9c0.2,1.2,1,2.8,1.4,3.1
		c0,0-2.8,1.7-7.1,0.3c-4.2-1.4-4.3-2.7-7.2-2.1c0,0,1.1,0.1,2.6,0.8c1.4,0.7,1.3,1.8,7.5,2.8c-2.1,1-5.1,1-7-0.6
		c-1.2-1-2.9-2.3-5.5-2.5c0,0,1.3-2,3.6-1.8c2.3,0.2,4.8,1.3,6,0.6c0,0,0.1-0.9-4.6-1.9C-188.9,415.9-187.6,414.3-185.3,414.2z
		 M-41.8,414.6c0,0,4.1,2.4,5.8,11.2c0,0,1.3,4.9-1.3,4.9c-2.6,0-1.9-2.7-1.8-4.3C-39,424.8-39.1,417.6-41.8,414.6z M-184.8,415.4
		c-0.4,0-0.7,0-1.1,0.1c0,0,2.2,0.8,3,1.7c0,0,0.9,0,2.3-0.4C-180.6,416.8-182.3,415.5-184.8,415.4z M-31.3,417.1
		c-0.9,4-0.6,5.7-0.9,7.7c-0.3,1.9-3.3,2.8-3.4-0.8C-35.7,420.3-31.3,417.1-31.3,417.1z M-180.8,418.2c-2.3,0.1-5.2,1-5.2,1
		c4,1.4,6.7,0.5,6.7,0.5c-0.4-0.5-0.6-1.4-0.6-1.4C-180.2,418.2-180.5,418.2-180.8,418.2z M-71.7,418.3c-3.2,5.3,0.1,10.1,0.1,10.1
		c0,5.3,4.8,8.2,4.8,8.2c-1.8,1.4-4.5-0.5-4.5-0.5c2.3,6.5,9.7,5.1,9.7,5.1s5.6-2.7,8.9-1.9c3.3,0.8,7.8-0.8,13.1-2.2
		c5.2-1.4,11.2,1.4,11.2,1.4c-7.1-5.7-16.2-1.7-20.1-1c-3.9,0.6-6.9-2.7-6.9-2.7c-0.1,1,0.9,2.5,0.9,2.5c-4.7,0.6-5.9-2.1-5.9-2.1
		c-2.8,0.6-4.3-2.3-4.3-2.3c-2.3-0.7-2.8-3.4-2.8-3.4c-2.5-0.9-2.5-4.2-2.5-4.2C-73,422.6-71.7,418.3-71.7,418.3L-71.7,418.3z
		 M-44.3,423c0.1,0,1.2,1,0.7,2.9c-0.4,1.9-1.6,1.1-2.2,0.5c-0.6-0.6-0.6-0.4-0.6-0.8C-46.4,425.3-45,424.4-44.3,423z M-41.5,423.7
		c0,0,0.8,1.2,0.6,2.4c-0.2,1.2-0.8,1.7-1.3,1.6c-0.5-0.1-1.4-0.5-1.4-1.1C-43.6,426-42.9,425.1-41.5,423.7z M-30.7,428.3
		c0,0,0.5,1.5-0.1,3.1c0,0,1.5-0.2,2.6-1.2c0,0,0.5,1.5-0.3,2.6c0,0,1.9-0.6,2.3-1.2c0,0,0.5,2.1-0.5,3c-1,0.9-1.8,1.1-2.5-1.2
		c0,0-1.4,1.4-2-1.3c0,0-1.5,0.8-2.1-1.4c0,0-0.1-0.4,0.3-0.6C-32.7,429.9-31.4,429.1-30.7,428.3L-30.7,428.3z M-113.4,433.9
		c-3.5,0.1-8.5,2.9-15.7,6.7c-7.7,4-12.9,3.2-12.9,3.2c5.5,1.9,11.1-0.2,16-2.7c4.9-2.6,9.9-4.6,9.9-4.6c0,1.3,0.2,1,0.4,1.9
		c0.2,0.9-0.4,1.3-0.5,1.9c0,0.7,0.8,1.5,0.8,1.5c-0.6-2.2,1.4-2.6,1.4-2.6c-1.4-4.3,1.3-4.3,1.3-4.3l0-1
		C-113,433.9-113.2,433.9-113.4,433.9z M-108.1,436.2c0,0,3.4,3,13.1,5.3c0,0-12.5-0.5-14.7-3l1.8-1L-108.1,436.2z M-69.2,444.4
		l1.1,0.5c-0.5,0.9-0.8,2.1-1.1,3c-0.6,1.6-1.4,3-2.5,4.3c-0.6,0.6-1.3,1.2-2,1.6c-0.9,0.6-1.9,1.1-2.8,1.6c-0.9,0.5-2,1.2-2.5,2.2
		c-0.9,1.9-1.6,3.4-3.1,4.7c-1.7,1.3-6.2,0.8-8.7,0.4v0l-0.1,0c0,0,0.1,0,0.1,0l1.1-1.9c6.9,1.9,8.5-1.2,9.1-3.5
		c0.6-2.3,3.9-3.9,6.8-5.7C-71,449.9-69.2,444.4-69.2,444.4L-69.2,444.4z"/>
	<path class="st1" d="M-46.7,405.6c-1-0.1-1,0.2-1,0.2c0.9,7.6,5.6,3.7,5.6,3.7l-0.7-0.8c-0.3,1.2-2.8,1.6-3.3-0.2
		c-0.5-1.8,0.8-2.1,0.7-2.5C-45.4,405.7-45.7,405.7-46.7,405.6L-46.7,405.6z M-41.8,414.6c2.7,3,2.7,10.2,2.7,11.8
		c-0.1,1.6-0.7,4.4,1.8,4.3c2.6,0,1.3-4.9,1.3-4.9C-37.7,417-41.8,414.6-41.8,414.6z M-31.3,417.1c0,0-4.4,3.2-4.3,6.9
		c0.1,3.7,3.1,2.8,3.4,0.8C-31.9,422.8-32.2,421.1-31.3,417.1z M-44.3,423c-0.7,1.4-2.1,2.3-2.1,2.7c0,0.4,0,0.2,0.6,0.8
		c0.6,0.6,1.8,1.4,2.2-0.5C-43.2,424-44.2,423-44.3,423z M-41.5,423.7c-1.4,1.4-2.2,2.3-2.1,2.9c0,0.6,0.9,1,1.4,1.1
		c0.5,0.1,1.2-0.4,1.3-1.6C-40.7,425-41.5,423.7-41.5,423.7z M-30.7,428.3c-0.7,0.8-2.1,1.6-2.5,1.8c-0.4,0.2-0.3,0.6-0.3,0.6
		c0.6,2.3,2.1,1.4,2.1,1.4c0.6,2.8,2,1.3,2,1.3c0.7,2.3,1.5,2.1,2.5,1.2c1-0.9,0.5-3,0.5-3c-0.4,0.6-2.3,1.2-2.3,1.2
		c0.8-1.1,0.3-2.6,0.3-2.6c-1.1,0.9-2.6,1.2-2.6,1.2C-30.1,429.8-30.7,428.3-30.7,428.3L-30.7,428.3z M-108.1,436.2l0.2,1.3l-1.8,1
		c2.2,2.5,14.7,3,14.7,3C-104.7,439.1-108.1,436.2-108.1,436.2z"/>
</g>
</svg>
