<?xml version="1.0" encoding="utf-8"?>
<!-- Generator: Adobe Illustrator 22.1.0, SVG Export Plug-In . SVG Version: 6.00 Build 0)  -->
<svg version="1.1" id="Layer_1" xmlns="http://www.w3.org/2000/svg" xmlns:xlink="http://www.w3.org/1999/xlink" x="0px" y="0px"
	 viewBox="10.9 -9.8 98 99.9" style="enable-background:new 10.9 -9.8 98 99.9;" xml:space="preserve">
<style type="text/css">
	.st0{fill:#FFFFFF;}
	.st1{fill:#CEB888;}
	.st2{fill:#2C2A29;stroke:#2C2A29;stroke-width:0.2;}
	.st3{fill:#782F40;}
</style>
<g transform="matrix(1.25 0 0 -1.25 -162.76 511.02)">
	<g transform="matrix(1.8342 0 0 1.8342 -140.59 -305.65)">
		<path class="st0" d="M189.9,351.9c0,0-3.7,2.9-3.9,3.1c5.7,4,9.1,10.5,9.1,17.5c0,11.8-9.6,21.3-21.3,21.3c-1.4,0-2.8-0.1-4.1-0.4
			c-0.7,0-1.9-0.2-2.8-0.6c-0.8,0-1.6-0.1-2.3-0.4c-0.7-0.2-1.3-0.5-1.8-0.9c-0.1-0.1-0.2-0.1-0.3-0.2c0,0-0.1,0-0.1-0.1
			c-0.3-0.2-0.6-0.5-0.9-0.8c-0.5-0.4-0.8-0.7-0.9-0.8c0,0,0,0,0-0.1c-0.1-0.1-0.2-0.2-0.3-0.3c-1.3-0.7-2.8-2.5-3.4-3.3
			c0-0.1-0.9-1.3-1.2-1.8c0,0,0,0,0,0c0,0-1.8-3.3-2.5-5.2c0,0,0,0,0-0.1c-0.1-0.3-0.1-0.7-0.2-1.1c0-0.2-0.1-0.4-0.1-0.5
			c0,0,0,0,0,0c0,0,0-0.1,0-0.2c-0.1-0.6-0.5-2.2-0.4-3.6c0-0.1,0-0.2,0-0.2c0-0.1,0-0.1,0-0.2c0,0,0,0,0-0.1c0-0.2,0-0.4,0-0.5
			c0-0.5-0.1-1,0.1-1.7c0,0,0,0,0,0c0.1-0.7,0.1-1.5,0.3-2.2l0-0.1c0,0,0-0.1,0-0.1c0.3-1.4,0.6-3.1,1.2-4.7c0.1-0.3,0.4-1.6,0.6-2
			c0.1-0.1,0.2-0.2,0.3-0.3c0.3-1.2,0.8-2.1,1.4-2.8c0.2-0.2,0.4-0.3,0.6-0.3h0c0.3-0.4,0.6-0.7,0.9-0.9c0,0,0,0,0,0
			c0.3-0.3,0.7-0.6,1.1-0.8c0.1-0.1,0.3-0.1,0.4-0.1c0.1,0,0.1,0,0.2,0c3.9-3.5,9-5.5,14.3-5.5c1.6,0,3.2,0.2,4.8,0.5
			c0.6-0.2,1.2-0.4,1.8-0.6c1.9-0.6,4-0.8,6.1-0.8c1.8,0,3,0.2,3.1,0.2c0.3,0.1,0.6,0.3,0.6,0.6
			C190.3,351.4,190.1,351.7,189.9,351.9"/>
		<path class="st1" d="M174.7,392.2c0.2-0.1,0.3-0.2,0.5-0.4c0.2-0.2,0.4-0.4,0.5-0.5c0,0.1,0,0.1,0,0.2c0,0.1,0,0.2-0.1,0.2
			c0,0,0,0,0,0l-0.2,0.4C175.2,392.2,174.9,392.2,174.7,392.2L174.7,392.2z M175.4,392.2l0.3-0.3c0.2-0.2,0.4-0.5,0.6-0.8
			c0-0.1,0.1-0.1,0.1-0.2h0c9.1-1.3,16-9,16-18.4c0-7.1-4-13.3-9.8-16.4c0.4-0.2,0.8-0.4,1.2-0.7c5.9,3.4,9.8,9.8,9.8,17.1
			C193.6,382.8,185.6,391.3,175.4,392.2L175.4,392.2z M183.3,381.3c-0.2-0.1-0.4-0.2-0.6-0.4c-0.1,0-0.1-0.1-0.2-0.1
			c-0.1-0.1-0.1-0.1-0.2-0.2c-0.1,0-0.1-0.1-0.2-0.1c-0.1-0.1-0.1-0.1-0.2-0.2c-0.1,0-0.1-0.1-0.1-0.1c-0.1-0.1-0.1-0.1-0.2-0.2
			c0,0-0.1-0.1-0.1-0.1c-0.1-0.1-0.1-0.1-0.2-0.2c0,0-0.1-0.1-0.1-0.1c0,0-0.1-0.1-0.1-0.1c0,0,0.1-0.1,0.1-0.1l0.4-0.5
			c0.7,0.8,1.5,1.5,2.5,2c-0.1,0.1-0.1,0.1-0.2,0.2h0l0,0c0,0,0,0,0,0c0,0-0.1,0.1-0.1,0.1C183.5,381.1,183.4,381.2,183.3,381.3
			L183.3,381.3z M179.5,378.3c-1.7-1.3-3-3.1-3.7-5.1c-0.2-0.5-0.3-1-0.4-1.4c0.3,0,0.6,0.3,1,0.9c0.7,2,2,3.8,3.6,5.1
			C179.9,377.9,179.7,378.1,179.5,378.3L179.5,378.3z M160.1,372.8c-2.1,0-3.9-1.7-3.9-3.9c0-1.6,1-3,2.4-3.6c0.5-0.2,1-0.3,1.5-0.3
			c0.3,0,0.7,0,1,0.1c0.2,0,0.3,0.1,0.4,0.1c-0.1,0.2-0.2,0.4-0.4,0.5c-0.3-0.1-0.7-0.2-1-0.2c-1,0-1.8,0.4-2.4,1.1
			c0.6-0.5,1.3-0.8,2.1-0.8c0.4,0,0.8,0.1,1.1,0.2c0.2,0.1,0.5,0.2,0.7,0.3c0.1-0.1,0.2-0.2,0.3-0.3c0.2-0.1,0.3-0.3,0.5-0.4h0
			c0.7-0.7,1.3-1.3,1.3-1.3c-0.1-0.5,0-1.1,0-1.1c0.3,0.3,0.6,0.4,0.6,0.4c0-0.4,0.2-0.9,0.2-0.9c0.1,0.2,0.3,0.4,0.3,0.4
			c3-3,6.5-5.4,10.3-7.5c5.8-3.1,10.6-4,10.6-4l0,0.1c0,0-5.6,1.6-12.2,5.6l0.1,0c5.1-2.4,8.6-3,9.7-2.6l-0.9,0.5c0,0-0.1,0-0.1,0.1
			c0,0-0.1,0-0.1,0.1c0,0,0,0,0,0c0,0-0.1,0.1-0.1,0.1c0,0,0,0,0,0c0,0-0.1,0.1-0.1,0.1c0,0,0,0,0,0c0,0-0.1,0-0.1,0.1
			c0,0,0,0-0.1,0c0,0-0.1,0-0.1,0.1c0,0,0,0-0.1,0c0,0-0.1,0-0.1,0.1c0,0-0.1,0.1-0.1,0.1c0,0,0,0,0,0c-0.1,0-0.1,0.1-0.2,0.1
			c0,0,0,0,0,0c-0.1,0.1-0.2,0.2-0.3,0.2c0,0,0,0,0,0c0,0-0.1,0.1-0.1,0.1c0,0,0,0-0.1,0c-0.1,0-0.1,0.1-0.2,0.1h0
			c-0.1,0-0.1,0.1-0.2,0.1c0,0,0,0-0.1,0c0,0-0.1,0.1-0.2,0.1c0,0,0,0-0.1,0c-0.1,0-0.1,0.1-0.2,0.1c-0.5,0.3-0.7,0.5-1.2,0.8
			c-0.5-0.1-1.1-0.2-1.7-0.2c-0.1,0-0.2,0-0.3,0h0c-0.1,0-0.2,0-0.3,0h0c-0.1,0-0.2,0-0.3,0c0,0,0,0,0,0c-0.1,0-0.2,0-0.3,0
			c0,0,0,0,0,0c-0.1,0-0.2,0-0.3,0c0,0,0,0,0,0c-0.1,0-0.2,0-0.3,0c0,0,0,0,0,0c-0.1,0-0.2,0-0.3,0c0,0,0,0,0,0c-0.1,0-0.2,0-0.3,0
			c0,0-0.1,0-0.1,0c-0.1,0-0.1,0-0.2,0c0,0-0.1,0-0.1,0l-0.2,0c-0.1,0-0.2,0-0.3,0c-0.1,0-1.3,0.3-1.4,0.4c1.1-0.3,2.8,0.2,3.9,0.8
			l0.4,0.2c-0.8,0.5-1.8,1.1-2.6,1.6c0,0-1.7-0.4-3.2-0.1c-1.3,0.2-3.2,1.1-3.2,1.1s1.7-0.3,4.7,0.3c-1.1,0.9-1.8,1.4-3,2.1
			c-1.5,1-3,0.7-4.6,0.4l0,0.1c0.3,0.4,0.5,0.7,1,0.9c-0.6,0-1.1-0.1-1.6-0.5c-0.1,0.1-0.2,0.2-0.2,0.2c0,0-0.2,0.2-0.6,0.6
			c0.1,0.1,0.2,0.2,0.3,0.3l0,0c0.1,0.1,0.2,0.3,0.3,0.4c0.3,0.5,0.5,1.2,0.5,1.8c0,1.4-0.7,2.6-1.9,3.3
			C161.5,372.5,160.8,372.8,160.1,372.8L160.1,372.8z M161.3,358.7c0-0.1,0-0.2,0-0.2c0.1-0.3,0.2-0.5,0.3-0.8c0-0.2,0-0.3,0-0.5
			c0-0.1,0-0.2,0-0.2c3.4-2.7,7.6-4.3,12.3-4.3c1.2,0,2.3,0.1,3.4,0.3c-0.7,0.3-1.4,0.6-2.1,0.9c-0.4,0-0.8,0-1.2,0
			C169,353.8,164.6,355.7,161.3,358.7L161.3,358.7z"/>
		<path class="st2" d="M173.8,393c-1.4,0-2.7-0.1-4-0.4c-0.9-0.1-2-0.2-2.8-0.6c-0.8,0-1.5-0.1-2.2-0.3c-0.7-0.2-1.3-0.6-1.9-1
			c-0.7-0.6-1.8-1.4-1.7-1.5c-0.1,0-0.3-0.4-0.6-0.6c-1.1-0.5-2.5-2.1-3.1-3c0,0-0.8-1.2-1.1-1.7c-0.3-0.6-1.8-3.4-2.4-5.1
			c-0.1-0.5-0.2-1.3-0.2-1.6c0-0.3-0.5-2.1-0.4-3.6c0-0.2,0.1-0.4,0-0.6c0-0.8-0.1-1.3,0-2c0,0,0,0,0,0c0.1-0.8,0.1-1.6,0.3-2.3
			c0,0,0,0,0,0c0.3-1.6,0.6-3.1,1.2-4.6c0,0,0.4-1.5,0.6-1.9c0.2-0.2,0.3-0.2,0.3-0.4c0.2-1.1,0.5-1.7,1.2-2.6
			c0.1-0.1,0.1-0.1,0.2-0.1c0.1,0,0.1,0,0.2,0c0,0,0,0,0.1,0c0.5-0.8,0.2-0.4,1-1.1c0.3-0.3,0.6-0.5,1-0.8c0,0,0.2-0.1,0.4-0.1
			c0.1,0,0.1,0,0.2,0c3.7-3.4,8.5-5.4,13.9-5.4c1.7,0,3.3,0.2,4.8,0.6c-0.5,0.2-1,0.3-1.4,0.5c-1.1-0.2-2.2-0.3-3.4-0.3
			c-4.6,0-8.9,1.6-12.3,4.3c0,0.1,0,0.1,0,0.2c0,0.2,0,0.3,0,0.5c0,0.3-0.2,0.5-0.3,0.8c0,0.1,0,0.2,0,0.2c3.3-3,7.7-4.9,12.5-4.9
			c0.4,0,0.8,0,1.2,0c-0.5,0.2-1,0.5-1.5,0.8c-0.4,0-0.8,0-1.1,0.1c-1.1,0.6-2.2,1.3-3.3,2.1c-2.6,1.8-4,3.6-4,3.6
			c-0.3-0.7-0.5-1.4-0.5-1.4h0l-0.5,0.9c-0.2,0.3-0.3,0.8-0.4,1.2L163,360c0,0-0.3,1.3-0.3,1.3s-0.1,1.1-0.1,1.5
			c0,0-0.8-0.7-0.8-0.7h0l-0.1,1c0,0,0,1-0.6,2c-0.3-0.1-0.6-0.1-1-0.1c-0.5,0-1,0.1-1.5,0.3c-1.4,0.6-2.4,2-2.4,3.6
			c0,2.1,1.7,3.9,3.9,3.9c0.7,0,1.4-0.2,2-0.6c1.1-0.7,1.9-1.9,1.9-3.3c0-0.7-0.2-1.3-0.5-1.8c0.2-0.2,0.4-0.4,0.6-0.5
			c0.4,0.1,0.7,0.2,1.1,0.2c0.1,0,0.2,0,0.3,0l0.2-0.8c0.1,0,0.1,0,0.2,0c0.2,0,0.4,0,0.5,0c0.3,0,0.6,0,0.9,0
			c0,0.1,0.1,0.2,0.2,0.4c0.2,0.3,0.5,0.5,0.6,0.8c0.2,0.3,0.5,0.9,0.6,1.2c0.1,0.1,0.1,0.2,0.2,0.3c0,0,0.4,0,0.6-0.1
			c0,0,0,0,0-0.1c0.1-0.2,0.1-0.3,0.2-0.4c0.4-0.5,1.2-0.7,1.4-0.6c0.2,0,0.4,0,0.5-0.1h0c0,0,0,0,0,0c0.1-0.1,0.1-0.1,0.2-0.2
			c0.1-0.1,0.2-0.3,0.3-0.6c0.6-1,3.4-4.2,4.4-5.1c0,0,0.1-0.1,0.1-0.1c0,0,0,0,0,0c0.1-0.1,0.2-0.1,0.2-0.2
			c0.4-0.3,0.9-0.4,1.4-0.1c0.3,0.1,0.4,0.4,0.6,0.7c0.1,0.1,0.1,0.2,0.2,0.3c0.1,0.2,0.3,0.3,0.4,0.4c0.1,0.1,3.2,0.6,3.6,0.7
			c0.4,0.1,0.7,0.1,1.1,0.2c0.4,0.1,1.4,0.2,1.6,0.4c0,0,0,0-0.1,0l-0.1,0c-0.1,0-0.1,0-0.2,0c-1.5-0.1-2.9,0.2-4.4,0.4l-2.2,0.2
			c-0.4,0.1-0.8,0-1.2,0.1l0,0c-0.9,0.1-1.8,0.2-2.6,0.6c-0.4,0.2-0.8,0.5-1.1,0.8c-0.3,0.3-0.6,0.7-0.7,1.1
			c-0.2,0.3-0.6,1.2-0.6,1.6c0,0,0.3,0.4,0.3,0.8c-0.5-0.3-1-0.6-1.7-0.5c-0.1,0-0.2,0.1-0.4,0.1c-0.2,0.2-0.4,0.3-0.6,0.5
			c-0.2,0.1-0.4,0.3-0.7,0.3c-0.9,0.2-1.1,0-1.5,0.4c0.9,2.4,1.3,1.1,2.4,3.1c0.1-0.1,0.1-0.2,0.2-0.3c0,0,0.1-0.1,0.1-0.1
			c0.3-0.1,0.5-0.2,0.8-0.4c0,0,0.1-0.1,0.1-0.1c0,0,0,0,0,0c0.1,0.7,0.2,1.4,0.4,2c0,0.1,0,0.1,0,0.2c0,0.1-0.1,0.2-0.1,0.3
			c0,0.1-0.1,0.1-0.1,0.1s0,0,0,0.1v0l0,0c0,0,0,0.1,0,0.1l0,0c0,0,0,0,0,0c0,0-0.3,0.3-0.3,0.4c-0.1,0.3-0.4,0.6-0.6,0.9
			c0,0,0,0,0,0c-0.4,0.9-0.7,1.4-1,1.6c0,0,0,0,0,0c0,0,0,0,0,0c0,0,0,0,0,0l0,0c0,0,0,0,0,0c0,0,0,0-0.1,0.1c0,0-0.5,0.4-0.6,0.5
			c0.4-1.3,0-2.9-0.1-3.4l0,0c-0.1,0.2-0.1,2.2-0.2,2.4c-0.1-0.7-0.1-2.8-1.1-3.6c0.2,0.6,0.8,2.7,0.8,2.7c-0.1-0.2-0.6-1.2-0.9-1.3
			c0.5,1.8,0.8,3.2,0.8,3.3c-0.2-0.3-0.3-0.7-0.4-1c-0.1,0.5,0.1,0.9,0.3,1.3l-0.1,0.2c0,0,0,0,0,0c-0.1,0.1-0.2,0.2-0.3,0.3
			c0,0,0,0.1-0.1,0.1c0,0,0,0.1-0.1,0.1h0c0,0.1-0.1,0.1-0.1,0.2c0,0,0,0,0,0c0,0,0,0,0,0c0,0.1-0.1,0.1-0.1,0.2
			c-0.1,0.1-0.1,0.2-0.2,0.3c0,0,0,0,0,0l0,0v0c0,0,0,0,0,0c-0.2,0.4-0.3,0.8-0.3,1.3c0,0.1,0,0.1,0,0.2c0,0,0,0.1,0,0.1
			c0,0,0,0,0,0c0,0.2,0,0.4,0,0.6c0,0,0,0.1,0,0.1c0,0.1,0.1,0.2,0.1,0.4c0,0,0,0,0,0.1c0,0.1,0.1,0.2,0.2,0.3
			c0,0.1,0.1,0.1,0.1,0.2c0.1,0.2,0.3,0.3,0.4,0.5c0.1,0.1,0.2,0.2,0.3,0.3c0,0,0.1,0.1,0.1,0.1c0.1,0.1,0.1,0.1,0.2,0.1
			c0.1,0.1,0.2,0.2,0.4,0.3c0,0,0,0,0,0c0.2,0.1,0.5,0.3,1,0.6l0,0l0,0v0c0.3,0.2,0.2,0.2,0.4,0.4c0,0,0,0,0.1,0c0,0,0,0,0,0l0,0
			c0.2,0.1,0.2,0.2,0.4,0.3c0.3,0.2,0.3,0.2,0.6,0.3c0.1,0,0.4,0.2,0.5,0.2c0,0,0.1,0,0.2,0.1c0,0,0.1,0,0.1,0.1c0.1,0,0.1,0,0.1,0
			c0.3,0.1,0.5,0.1,0.9,0.2l0,0l0,0c0,0,0,0,0,0c0.6,0.1,1,0.2,1.5,0.2c0,0,0,0,0,0c0,0,0,0,0.2,0c0,0,0,0,0,0c0,0,0,0,0,0
			c0,0,0,0,0,0c-0.5,1-0.9,1.9-1.8,2.6c1.1-0.5,1.9-1.5,2.5-2.6c0,0,0,0,0.1,0c0,0,0,0.1,0,0.1c0,0,0,0,0,0c0,0,0,0,0,0.1
			c-0.1,0.2-0.2,0.4-0.2,0.7c-0.2,0.5-0.4,0.9-0.7,1.4c-0.2,0.2-0.4,0.5-0.6,0.8c0.5-0.3,0.9-0.8,1.3-1.2h0c0,0,0,0,0,0
			c0-0.1,0.1-0.1,0.1-0.2c0,0,0-0.1,0.1-0.1c0,0,0,0,0,0c0-0.1,0.1-0.1,0.1-0.1c0,0.4-0.1,0.6-0.2,0.8c-0.2,0.3-0.4,0.3-0.6,0.5
			c0,0,0,0.1,0,0.1c-0.1,0.3-0.2,0.8-0.4,1.3c-0.1,0.3-0.3,0.7-0.5,0.8c0.4-0.3,1-0.6,1.3-1.1c0.1-0.2,0.2-0.4,0.4-0.7
			c0.2-0.5,0.4-1.3,0.4-2.3c0.1,0.2,0.1,0.4,0.2,0.6c0.1,0.6,0.1,1.4,0,2c0.4-0.8,0.6-1.6,0.5-2.6l0,0c0.3,0.2,0.3,0.4,0.5,0.7
			c-0.1-0.6-0.3-1.2-0.8-1.7l0.1-0.1c1.6-0.7,3.1-1.8,4.4-3.2c0.1-0.1,0.1-0.2,0.2-0.3c0.1-0.2,0.1-0.4,0.1-0.7
			c0-0.2-0.3-0.6-0.1-0.9c0,0,0.1-0.1,0.1-0.1c0.3-0.1,1.2-0.3,1.6-0.5c0,0,0.1,0,0.1-0.1c0,0,0.1,0,0.1-0.1c0,0,0,0,0,0
			c0,0,0.1,0,0.1-0.1c0,0,0,0,0.1,0l0,0c0,0,0,0,0,0c0,0,0.1,0,0.1-0.1c0,0,0.1,0,0.1-0.1c0.1,0,0.1-0.1,0.2-0.1c0,0,0.1,0,0.1-0.1
			c0,0,0.1,0,0.1-0.1c0,0,0,0,0,0c0,0,0.1-0.1,0.1-0.1l0,0h0c0.1,0,0.1-0.1,0.2-0.1c0,0,0,0,0,0c0.1,0,0.1-0.1,0.2-0.1c0,0,0,0,0,0
			c0,0,0,0,0,0c0.1-0.1,0.1-0.1,0.2-0.2c0,0,0,0,0,0l0.2-0.2c0.5-0.4,1-0.9,1.7-1.5c0,0,0,0,0,0v0c0,0,0,0,0,0
			c0.1-0.1,0.2-0.3,0.2-0.6c0-0.1,0-0.1,0-0.2c-0.2-0.6-0.7-0.5-1-1.1c-0.2-0.2-0.4-0.5-0.4-0.6c0.1-0.5,0.3-0.6,0.4-0.7
			c0.1-0.2,0.4-0.3,0.4-0.5c0-0.1,0-0.1,0-0.2c-0.1-0.2-0.1-0.3-0.2-0.5c-1.6-0.3-3-1.5-3-1.5l0-0.1c0-1.1-0.1-2.4,0.2-3.4
			c0-0.1,0.1-0.2,0.1-0.3c0-0.2,0.1-0.4,0.2-0.5c0.2-0.7,0.5-1.3,0.9-1.9c0.2-0.3,0.5-0.7,0.7-1l0.5-0.6c-0.3,0.7-0.8,1.5-1.2,2.4
			c-0.1,0.2-0.2,0.4-0.3,0.6c-0.1,0.3-0.2,0.6-0.3,0.9c0.8-0.4,1.6-0.5,2.5-0.6c0.3-0.1,0.6-0.2,0.7-0.5c0-0.1-0.1-0.2-0.2-0.3
			c-0.2-0.4-0.2-0.9,0-1.3c0,0,0.1-0.1,0.1-0.1c0,0,0,0,0,0c0,0,0,0,0,0c0.2-0.3,0.4-0.6,0.5-1c0,0,0,0,0-0.1c0-0.2,0-0.4-0.1-0.6
			c-0.5-0.4-0.9-0.8-1.5-0.9c-2.1-0.5-4.3-0.8-6-2.2c-0.2-0.2-0.5-0.4-0.7-0.6c-0.2-0.2-0.5-0.4-0.6-0.7c0,0-0.1-0.1-0.1-0.2l0,0
			l0,0v-0.3c0.1,0.2,0.3,0.4,0.5,0.5c0,0,0,0,0,0c-0.1-0.1-0.1-0.2-0.2-0.3c-0.2-0.3-0.2-0.7-0.2-1l0.1,0c0,0,0.1,0,0.1,0
			c0.2,0,0.3,0.2,0.3,0.2c0.1-0.1,0.3-0.2,0.4-0.3l0,0c0.1,0.7,0.3,1.6,0.7,2l0,0c0.4,0.4,1.3,0.9,2.6,1.4c1.1,0.4,4.2,1.2,4.6,1.4
			c0.1,0.1,0.7,0.3,1,1l0,0.1c0.2,0.5,0.2,0.6-0.3,1.4c-0.5,0.7-0.4,1.1-0.3,1.2c0,0,0,0,0,0c0,0,0,0.1,0.1,0.1
			c0.2,0.3,0.3,0.6,0.2,0.8c0,0,0,0,0,0c0,0,0,0,0,0c0,0.1-0.1,0.2-0.2,0.3c-0.5,0.3-0.9,0.5-1.1,0.5c0,0,0,0,0,0c0,0,0,0,0,0
			c-0.1,0-0.1,0-0.1,0c0,0-0.1,0.1-0.1,0.1c0,0,0,0,0,0c0,0,0,0,0,0c0,0,0,0.1,0,0.1c0,0,0,0,0,0c0,0,0,0,0,0.1c0,0.1,0,0.1-0.1,0.2
			c0,0-0.1,0-0.1,0.1c-0.2,0.1-0.5,0.1-0.6,0.2c0,0,0,0-0.1,0c0,0-0.1,0-0.1,0c0,0,0,0,0,0c0,0,0,0,0,0c0,0,0,0,0,0c0,0,0,0,0,0
			c-0.1,0.1-0.3,0.2-0.3,0.2l-0.9,0.2c-0.2,0.1-0.3,0.2-0.3,0.3c0,0,0,0,0,0c0,0,0,0,0,0c0,0.1,0,0.3,0,0.6c0,0.6,0,0.8,0,0.8
			c0,0,0.2-0.1,0.4,0c0.2,0,0.7,0.3,0.8,0.4c0,0,1.1,0.4,1.1,0.7c0,0.3,0,0.6,0,0.6c0,0,0,0,0,0l0,0.1l0.1,0c0.1,0,0.6,0.3,0.7,0.3
			c0.1,0,0.3,0.1,0.3,0.3c0,0.1,0.1,0.3,0.1,0.5c0,0.1,0.1,0.2,0.1,0.3c0,0.1-0.1,0.4-0.3,0.6c-0.1,0.1-0.4,0.4-0.4,0.7
			c0,0.1,0,0.2,0.1,0.3c0.2,0.3,0.8,0.8,1,0.9c0.3,0.3,0.3,0.8,0.1,1.2c-0.1,0.1-0.2,0.3-0.3,0.4c-0.5,0.6-1.5,1.5-1.9,1.8
			c-0.5,0.4-1.9,1.2-2.3,1.4c-0.1,0-0.1,0.1-0.2,0.1c-0.2,0.1-0.4,0.1-0.5,0.3c0,0.1,0,0.1,0,0.2c0,0.1,0,0.1,0,0.2
			c0.1,0.2,0.1,0.4,0,0.6c0,0,0,0.1-0.1,0.1c-0.3,0.4-1.2,1.4-1.8,1.9c-0.6,0.5-2.6,1.7-2.6,1.7h0l0.2,0.6c0,0,0,0.1,0,0.1
			c0,0.2,0.1,0.4,0.1,0.6c0,0,0,0.1,0,0.1c0,0,0,0,0,0c0,0.2,0,0.5,0,0.6c0,0,0,0.1,0,0.1c0,0,0,0,0,0.1l-0.1,0v0c0,0,0,0,0,0
			c0,0.1,0,0.1,0,0.2c7.9-1.8,13.8-8.9,13.8-17.3v0c0-4.7-1.8-8.9-4.8-12.1c-1.4-1.5-3.2-2.8-5.1-3.8c0.2-0.2,0.5-0.3,0.8-0.5
			c5.9,3.1,9.8,9.3,9.8,16.4c0,9.4-7,17.2-16,18.4c0,0.1-0.1,0.1-0.1,0.2c-0.2,0.3-0.4,0.7-0.6,0.8l-0.3,0.3
			c10.2-0.8,18.1-9.3,18.1-19.7c0-7.3-3.9-13.6-9.8-17.1c0.3-0.1,0.6-0.3,0.9-0.4c0,0,0,0,0.1,0c0.1,0.1,0.2,0.1,0.3,0.2
			c0,0,0.1,0.1,0.1,0.1c0.2,0.1,0.4,0.2,0.5,0.4c0.3,0.2,0.7,0.5,1,0.7c0.1,0.1,0.3,0.2,0.4,0.4c0.1,0.1,0.3,0.2,0.4,0.4
			c0.2,0.2,0.4,0.4,0.6,0.5c0.2,0.2,0.4,0.4,0.6,0.6c0.2,0.2,0.4,0.5,0.6,0.7c0.3,0.3,0.6,0.7,0.9,1c2.6,3.4,4.2,7.7,4.2,12.4
			C194.4,383.8,185.1,393,173.8,393L173.8,393z M174.7,392.2c0.2,0,0.5,0,0.7,0l0.2-0.4c0,0,0,0,0,0c0-0.1,0-0.2,0.1-0.2
			c0-0.1,0-0.1,0-0.2c-0.1,0.1-0.3,0.3-0.5,0.5C175,392,174.8,392.1,174.7,392.2L174.7,392.2z M177.9,384.3c0,0-0.1,0-0.1-0.1
			c0-0.1,0.3-0.3,0.4-0.4c0,0-0.6,0.2-0.7,0.2c-0.2,0-0.3,0-0.5,0c-0.3-0.1-2.6-1.4-2.7-1.5c0-0.5,1.4,0.1,1.7,0.2
			c-0.6-0.3-2.4-1.7-2.7-2.4c0.6,0,1.6,0.8,2,1c0.5,0.2,0.2-0.7,0.2-0.7s-0.6-0.4,0.3-0.3c0.2,0,0.1,0,0-0.2
			c-0.2-0.2-0.3-0.5-0.2-0.5c0.2,0.1,0.3,0.1,0.4,0.2c0.4,0.2,1.2,0.4,1.6,0.5l0,0c-0.4-0.3-0.8-0.4-1.3-0.6v0
			c0.2-0.1,0-0.2-0.1-0.3c-0.9-0.9-1.6-1.8-2-3c0.2,0.3,0.4,0.7,0.7,1c0.5,0.8,1,1.6,1.8,2c0.8,0.6,1.8,0.9,2.9,1c0,0,0.1,0,0.1,0
			c-0.1,0.1-0.2,0.1-0.3,0.1c0,0,0,0,0,0c0,0,0,0.1,0,0.1c-0.1,0.1-0.2,0-0.3,0.1c-0.1,0.1-0.1,0.2-0.1,0.3c0,0.1,0.2,0.1,0.3,0.1
			c0,0,0.3,0.1,0.3,0.1c-0.3,0.3-0.8,0.2-1,0.1c-0.5-0.2-1-0.3-1.5-0.6l0,0c0.2,0.3-0.5-0.1-1-0.6c0,0.1-0.1,0.1-0.3,0.4
			c0,0.4,0.3,0.7,0.5,1.1c0.5,0.6,1.9,1.2,1.9,1.2c0.2-0.2,0.5-0.4,0.7-0.6c0.1-0.1,0.1-0.2,0.2-0.4c0.1,0.4,0.5,0.5,0.8,0.7
			c-0.1,0-0.3,0.1-0.4,0.1c0,0.2,0.1,0.2,0.2,0.3c0.1,0.1,0.1,0.3,0.1,0.4c0,0.1,0,0.3-0.1,0.4C179.3,384,178.2,384.3,177.9,384.3
			L177.9,384.3z M179.4,380.1C179.4,380.1,179.3,380.1,179.4,380.1c0.5-0.7,1.3-1.3,1.7-2.1c0,0,0.6-0.8,0.7-1.6
			c0.2-1.1,0.2-2.3,0.1-3.5c0-1.1,0-1.6,0.1-2.5c0.2-1.1,0.4-1.6,0.6-2.2c-0.1,0.2-0.1,0.6-0.1,0.6c-0.3,1.3-0.5,2.9-0.3,4.1
			c0.2,1.1,0.3,2.3,0,3.4c0.1,0.2,0.4-0.1,0.5-0.1c0.2,0,0.3-0.1,1.1,0.5c0.3,0.3,0.8,0.1,1.1,0.5c0,0.1,0,0.2,0,0.2
			c-0.6,0.1-1-0.2-1.5-0.6c-0.4-0.2-0.9,0-1.2,0.2c-0.3,0.2-0.3,0.3-0.4,0.6c-0.3,0.5-0.7,0.9-0.7,0.9l-0.4,0.5
			c-0.5,0.6-0.9,0.8-0.9,0.8L179.4,380.1C179.4,380.1,179.4,380.1,179.4,380.1L179.4,380.1z M184.1,379.1c-0.1,0-0.2,0-0.3-0.1
			c-0.1-0.1-0.2-0.1-0.3-0.2c-0.1,0-0.1-0.1-0.1-0.2c0,0,0.5-0.1,0.5-0.1c0.2-0.1,0.3-0.1,0.5-0.2c0.1,0,0.2-0.1,0.3-0.1
			c0.1,0,0.1,0,0.1,0.1c0.1,0.2-0.3,0.3-0.4,0.4c-0.1,0.1-0.2,0.1-0.2,0.2C184.2,378.9,184.2,379.1,184.1,379.1L184.1,379.1z
			 M184.9,373.6c0.1,0,0.1-0.1,0.1-0.1c0,0,0-0.1,0-0.1c0.1-0.2,0.1-0.4,0-0.5c-0.1-0.1-0.3-0.2-0.5-0.1c0-0.1-0.4-0.5-0.6-0.3
			c-0.6-0.6-0.8-0.1-0.9-0.1c0.2,0.2,0.3,0.5,0.6,0.4c0.2,0.2,0.3,0.5,0.7,0.5C184.4,373.5,184.7,373.5,184.9,373.6
			C184.8,373.6,184.9,373.6,184.9,373.6L184.9,373.6z M171.3,371.4c-0.3-0.2-0.4-0.5-0.4-0.8c0.1,0.1,0.2,0.3,0.3,0.4
			c0.1,0,0.2,0,0.3-0.1c0-0.1,0-0.3-0.1-0.4c-0.1-0.1-0.3-0.1-0.5-0.1c-0.2,0.1-0.4,0.2-0.6,0.3c-0.3,0.2-0.6,0.3-0.9,0.3l0.1-0.1
			c0.4-0.1,0.7-0.4,1-0.6c0.3-0.1,0.7-0.2,1,0c0.2,0.1,0.2,0.3,0.2,0.4C171.8,370.9,171.6,371.2,171.3,371.4L171.3,371.4z
			 M183.5,369.5c0.2,0,0.3-0.1,0.3-0.2c0,0,0,0,0,0c0,0,0,0,0,0c0,0,0.1,0,0.1,0c0.2,0,0.5-0.1,0.6-0.2c0,0,0,0,0,0c0,0,0,0,0,0
			c0,0,0.1,0.1,0.1,0c0.2-0.1,0.5-0.1,0.7-0.2c0,0,0.1-0.1,0.1-0.1c-0.1-0.2-0.3-0.1-0.5-0.1c-0.1,0-0.3,0-0.4,0.1
			c-0.1-0.1-0.3,0-0.4,0c-0.1,0-0.3,0.1-0.3,0.1c-0.2,0.1-0.5,0.2-0.6,0.3c0,0-0.1,0.1-0.1,0.1c0.1,0,0.1,0,0.1,0
			C183.4,369.5,183.5,369.5,183.5,369.5L183.5,369.5z"/>
		<path class="st3" d="M177.8,389.8c0-0.1,0-0.1,0-0.2v0v0l0.1,0c0,0,0,0,0-0.1c0,0,0-0.1,0-0.1c0-0.1,0-0.4,0-0.6c0,0,0,0,0,0
			c0,0,0-0.1,0-0.1c0-0.2-0.1-0.4-0.1-0.6c0,0,0-0.1,0-0.1l-0.2-0.6c0,0,2-1.3,2.6-1.7c0.6-0.5,1.5-1.4,1.8-1.9c0,0,0-0.1,0.1-0.1
			c0.1-0.3,0.1-0.4,0-0.6c0-0.1,0-0.1,0-0.2c0-0.1,0-0.2,0-0.2c0.1-0.1,0.3-0.2,0.5-0.3c0.1,0,0.1-0.1,0.2-0.1
			c0.4-0.2,1.8-1,2.3-1.4c0.5-0.4,1.4-1.2,1.9-1.8c0.2-0.2,0.3-0.3,0.3-0.4c0.2-0.4,0.2-0.9-0.1-1.2c-0.1-0.1-0.7-0.7-1-0.9
			c-0.1-0.1-0.1-0.2-0.1-0.3c0-0.3,0.3-0.6,0.4-0.7c0.2-0.2,0.3-0.5,0.3-0.6c0,0,0-0.1-0.1-0.3c0-0.2-0.1-0.3-0.1-0.5
			c0-0.2-0.2-0.3-0.3-0.3c-0.1,0-0.7-0.3-0.7-0.3l-0.1,0l0-0.1c0,0,0,0,0,0c0-0.1,0.1-0.3,0-0.6c0-0.3-1.1-0.7-1.1-0.7
			c0-0.1-0.6-0.3-0.8-0.4c-0.2,0-0.4,0-0.4,0c-0.1-0.1,0-0.2,0-0.8c0-0.3,0-0.5,0-0.6c0,0,0,0,0,0c0,0,0,0,0,0
			c0-0.1,0.1-0.2,0.3-0.3l0.9-0.2c0,0,0.2-0.1,0.3-0.2c0,0,0,0,0,0c0,0,0,0,0,0c0,0,0,0,0,0h0c0,0,0.1,0,0.1,0c0,0,0,0,0.1,0
			c0.2,0,0.5-0.1,0.6-0.2c0,0,0.1,0,0.1-0.1c0-0.1,0.1-0.1,0.1-0.2c0,0,0,0,0-0.1c0,0,0,0,0,0c0,0,0-0.1,0-0.1c0,0,0,0,0,0
			c0,0,0,0,0,0c0-0.1,0.1-0.1,0.1-0.1c0,0,0.1,0,0.1,0c0,0,0,0,0,0c0,0,0,0,0,0c0.2,0,0.6-0.2,1.1-0.5c0.1-0.1,0.2-0.2,0.2-0.3
			c0,0,0,0,0,0c0,0,0,0,0,0c0.1-0.3-0.1-0.5-0.2-0.8c0,0,0-0.1-0.1-0.1c0,0,0,0,0,0c-0.1-0.2-0.2-0.5,0.3-1.2
			c0.6-0.8,0.5-0.8,0.3-1.4l0-0.1c-0.3-0.7-0.9-0.9-1-1c-0.3-0.2-3.4-0.9-4.6-1.4c-1.3-0.5-2.2-1-2.6-1.4l0,0
			c-0.4-0.4-0.5-1.3-0.7-2v0c-0.1,0.1-0.3,0.2-0.4,0.3c0,0-0.1-0.1-0.3-0.2c0,0-0.1,0-0.1,0l-0.1,0l-0.1,0l-0.8-0.1
			c-0.7-0.1-1.4,0-1.9,0c1.2,0.4,1.8,1,2.2,0.9l-1.2,0.8c-1,0.6-1.3,0.9-2.3,1.5c0,0-2.7-0.6-4.6,0.1c2.4,0,3.9,0.6,3.9,0.6
			c-0.1,0.2-0.2,0.2-0.4,0.3c-1.1,0.9-3,2-3,2c-1,0.6-2.4,1-3.7,0.9c-0.2,0-0.5,0-0.7-0.1l-0.2,0.8c-0.1,0-0.2,0-0.3,0
			c-0.4,0-0.7-0.1-1.1-0.3c0,0-0.1,0.1-0.1,0.1c-0.2,0.1-0.4,0.3-0.6,0.5c0,0,0,0,0,0c-0.1-0.1-0.2-0.2-0.3-0.3
			c0.4-0.4,0.6-0.6,0.6-0.6c0.1-0.1,0.2-0.2,0.2-0.2c0.5,0.3,1,0.5,1.6,0.5c-0.5-0.2-0.7-0.5-1-0.9l0-0.1c1.6,0.3,3.1,0.5,4.6-0.4
			c1.3-0.7,2-1.2,3-2.1c-3-0.6-4.7-0.3-4.7-0.3s1.8-0.9,3.2-1.1c1.6-0.3,3.2,0.1,3.2,0.1c0.8-0.5,1.8-1.1,2.6-1.6l-0.4-0.2
			c-1.1-0.5-2.8-1-3.9-0.8c0.1-0.1,1.2-0.4,1.4-0.4c0.1,0,0.2,0,0.3,0c0.1,0,0.1,0,0.2,0c0,0,0.1,0,0.1,0c0.1,0,0.1,0,0.2,0
			c0,0,0.1,0,0.1,0c0.1,0,0.2,0,0.3,0c0,0,0,0,0,0c0.1,0,0.2,0,0.3,0c0,0,0,0,0,0c0.1,0,0.2,0,0.3,0h0c0.1,0,0.2,0,0.3,0
			c0,0,0,0,0,0c0.1,0,0.2,0,0.3,0c0,0,0,0,0,0c0.1,0,0.2,0,0.3,0h0c0.1,0,0.2,0,0.3,0c0.1,0,0.2,0,0.3,0c0.6,0,1.1,0.1,1.7,0.2
			c0.4-0.3,0.7-0.5,1.2-0.8c0.1,0,0.1-0.1,0.2-0.1c0,0,0,0,0.1,0c0.1,0,0.1-0.1,0.1-0.1c0,0,0,0,0.1,0c0.1,0,0.1-0.1,0.2-0.1
			c0,0,0,0,0,0c0.1,0,0.1-0.1,0.2-0.1c0,0,0,0,0,0c0,0,0.1-0.1,0.1-0.1c0,0,0,0,0,0c0.1-0.1,0.2-0.2,0.3-0.2c0,0,0,0,0,0
			c0.1,0,0.1-0.1,0.2-0.1c0,0,0,0,0,0c0,0,0.1-0.1,0.1-0.1c0,0,0.1,0,0.1-0.1c0,0,0,0,0.1,0c0,0,0.1,0,0.1-0.1c0,0,0,0,0,0l0.1-0.1
			c0,0,0,0,0,0l0,0c0,0,0.1-0.1,0.1-0.1l0,0c0,0,0.1-0.1,0.1-0.1c0,0,0,0,0,0c0,0,0.1,0,0.1-0.1c0,0,0.1-0.1,0.1-0.1l0.9-0.5
			c-1.1-0.3-4.6,0.3-9.7,2.6l-0.1,0c6.6-4,12.2-5.6,12.2-5.6l0-0.1c0,0-4.8,0.9-10.6,4c-3.8,2-7.4,4.5-10.3,7.5c0,0-0.2-0.2-0.3-0.4
			c0,0-0.2,0.5-0.2,0.9c0,0-0.3-0.1-0.6-0.4c0,0-0.1,0.6,0,1.1c0,0-0.6,0.6-1.3,1.3c-0.2,0.1-0.3,0.3-0.5,0.4
			c-0.1,0.1-0.2,0.2-0.3,0.3c-0.2-0.1-0.4-0.3-0.7-0.4c-0.4-0.1-0.7-0.2-1.1-0.2c-0.8,0-1.5,0.3-2.1,0.8c0.6-0.7,1.4-1.1,2.4-1.1
			c0.4,0,0.7,0.1,1,0.2c0.2-0.2,0.3-0.4,0.4-0.5c0.6-0.9,0.6-1.9,0.6-2.1v0c0,0,0,0,0,0v0v0c0.3,0.2,0.5,0.5,0.9,0.6
			c-0.1-1,0-1.6,0.1-2.4c0.2,0.3,0.8,1.3,0.8,1.3c0.1-0.6,0.1-2,0.5-2.5c0.1,0.7,0.5,1.4,0.5,1.4c0-0.2,0.6-0.9,0.6-0.9
			c1.1-1.3,2.4-2.4,3.9-3.4c1.4-1,2.8-1.8,4.2-2.5c0.5-0.3,1-0.5,1.5-0.8c0.7-0.3,1.4-0.6,2.1-0.9c0.5-0.2,0.9-0.4,1.4-0.5
			c0.6-0.2,1.3-0.4,2-0.6c4.6-1.3,8.9-0.6,8.9-0.6s-1.6,1.1-2.5,2c-0.5,0-1.4,0-1.9,0.1c0.3,0.1,0.5,0.4,1.3,0.4
			c0,0-0.8,0.4-1.2,0.9c-0.6-0.2-1.9-0.9-2.5-0.9c0.5,0.2,0.5,0.3,1.1,0.6l0.6,0.4l0.3,0.2c-0.3,0.1-0.6,0.3-0.9,0.4
			c-0.5,0.2-0.9,0.4-1.2,0.6c-0.3,0.2-0.5,0.3-0.8,0.5c1.9,1,3.6,2.2,5.1,3.8c3,3.2,4.8,7.4,4.8,12.1
			C191.6,380.9,185.7,388,177.8,389.8L177.8,389.8z M182.7,381.6c-0.2-0.1-0.4-0.1-0.5-0.2c-0.1,0-0.1,0-0.2-0.1
			c-0.1-0.1-0.2-0.1-0.3-0.1c-0.5-0.3-0.9-0.8-1.3-1.3c0.2-0.1,0.4-0.3,0.6-0.5c0,0,0.1,0.1,0.1,0.1c0,0,0.1,0.1,0.1,0.1
			c0.1,0.1,0.1,0.2,0.2,0.2c0,0,0.1,0.1,0.1,0.1c0.1,0.1,0.1,0.1,0.2,0.2c0,0,0.1,0.1,0.1,0.1c0.1,0.1,0.1,0.1,0.2,0.2
			c0.1,0,0.1,0.1,0.2,0.1c0.1,0.1,0.1,0.1,0.2,0.2c0,0,0.1,0.1,0.1,0.1c0,0,0,0,0.1,0c0.2,0.1,0.4,0.2,0.6,0.4
			c-0.1,0-0.1,0.1-0.2,0.1h0c0,0,0,0-0.1,0c0,0-0.1,0-0.1,0.1c0,0,0,0,0,0C182.9,381.5,182.8,381.5,182.7,381.6
			C182.8,381.6,182.7,381.6,182.7,381.6L182.7,381.6z M184,380.8c-1-0.5-1.8-1.2-2.5-2l0.1-0.1c0,0,0.2-0.3,0.5-0.7
			c0,0,0,0.1,0.1,0.1c0.2,0.2,0.8,0.3,0.8,0.3c0.1,0.3,0.5,1.2,1.8,1.8v0l-0.2,0.2c0,0,0,0,0,0c-0.1,0.1-0.1,0.1-0.2,0.2
			c0,0,0,0,0,0c0,0,0,0,0,0c0,0,0,0,0,0h0C184.1,380.7,184.1,380.8,184,380.8L184,380.8z M178.4,379c-2.1-1.7-3.6-4.1-4.1-6.7
			c0.5,0,1,0.3,1.5,0.9c0.7,2,2,3.8,3.7,5.1c-0.1,0.1-0.2,0.2-0.3,0.4c-0.1,0.1-0.2,0.2-0.3,0.3L178.4,379L178.4,379z M180,377.7
			c-1.6-1.3-2.9-3.1-3.6-5.1c-0.2-0.5-0.2-0.7-0.3-1.2c1.8-0.8,1.8,2.8,4.6,5.1c-0.1,0.4-0.3,0.7-0.4,0.9c0,0-0.1,0.1-0.1,0.1
			C180.1,377.6,180.1,377.6,180,377.7L180,377.7z M160.1,372.1c-0.8,0-1.5-0.3-2.1-0.8l0.3-0.3c0.6,0.5,1.3,0.8,2.1,0.8
			c0.8,0,1.5-0.3,2.1-0.8C161.9,371.6,161.1,372.1,160.1,372.1L160.1,372.1z M161.6,370.7l-0.5-0.5l0.2,0c0,0,0.2,0,0.2-0.1
			c0.1-0.1,1-1,1.2-1.2c-0.1-0.1-0.2-0.2-0.3-0.3c-0.2-0.2-0.2-0.2-0.3-0.3l-1.2,1.2c-0.2,0.2-0.5,0-0.5,0c0,0-0.8-0.5-0.9-0.6l0,0
			l-0.3,0.3l0.6,0.6c0,0,0.1,0.1,0.2,0.1c0,0,0,0.3,0.2,0.6l0.1,0.1l-0.1-0.1c-0.2-0.1-0.5-0.2-0.5-0.2c0-0.1-0.1-0.2-0.1-0.2
			s-1.3-1.3-1.5-1.5l-0.4,0.4c0.1,0.1,0.2,0.2,0.4,0.4c0.2,0.2,0.3,0.3,0.4,0.3c0.2,0.1,0.4,0.1,0.4,0.1l-0.5,0.5l0,0
			c0,0-0.4-0.3-0.7-0.6c-0.3-0.3-0.7-0.8-0.7-0.8l-0.1-0.1l0.2,0c0.1,0,0.2-0.1,0.2-0.1l0.5-0.5l-0.1-0.1c-0.1-0.1-0.2-0.2-0.2-0.2
			l-0.1,0l0.3-0.1l0.1-0.1l0.1-0.3l0,0.1c0,0,0.1,0.1,0.2,0.2l0.1,0.1l0.4-0.4l0.1-0.1c0,0,0.1-0.1,0.1-0.2c0-0.1,0-0.2,0-0.2l0,0
			l0.8,0.8c0,0-0.1,0-0.2,0c-0.1,0-0.3,0.1-0.3,0.1l-0.1,0.1l-0.4,0.4l0.4,0.4l0.4-0.4h0h0c0,0,0.2-0.2,0.5,0c0,0,0.8,0.5,0.9,0.6
			l0.3-0.3c-0.1-0.1-0.3-0.3-0.4-0.4v0c-0.4-0.4-0.8-0.4-0.8-0.4l0.5-0.5c0,0,0.4,0.3,0.6,0.5c0.2,0.2,0.3,0.3,0.4,0.4l0.8-0.8
			l0.1,0.1l0,0c0.1,0.1,0.4,0.3,0.7,0.6c0.2,0.2,0.6,0.7,0.6,0.7l0.1,0.2l-0.2,0c0,0-0.1,0-0.2,0.1L161.6,370.7L161.6,370.7z"/>
	</g>
</g>
</svg>
