<?xml version="1.0" encoding="utf-8"?>
<!-- Generator: Adobe Illustrator 22.1.0, SVG Export Plug-In . SVG Version: 6.00 Build 0)  -->
<svg version="1.1" id="Layer_1" xmlns="http://www.w3.org/2000/svg" xmlns:xlink="http://www.w3.org/1999/xlink" x="0px" y="0px"
	 viewBox="183 -96 441.6 272" style="enable-background:new 183 -96 441.6 272;" xml:space="preserve">
<style type="text/css">
	.st0{fill:#FFFFFF;}
	.st1{fill:#005030;}
	.st2{fill:#F47321;}
</style>
<g transform="translate(1.0366 .96338)">
	<path class="st0" d="M500.3-97l0.3,182.2c0,11.7,0,47.2-89.4,47.3h-16.8C305,132.4,305,96.9,305,85.2L305.3-97H182l0.1,209.5
		c0,58,162.5,62.5,212.3,62.5h16.7c49.8,0,212.3-4.5,212.3-62.5L623.6-97L500.3-97L500.3-97z"/>
	<path class="st1" d="M509.8,85.2l0-173.3h104.6c0,0-0.1,193.7-0.1,200.6c0,38-104.4,53.3-203.1,53.3c0-4.8,0-16.6,0-24.1
		C460.6,141.6,509.8,131.2,509.8,85.2"/>
	<path class="st2" d="M295.8,85.2l0-173.3H191.2c0,0,0.1,193.7,0.1,200.6c0,38,104.4,53.3,203.2,53.3c0-4.8,0-16.6,0-24.1
		C345,141.6,295.8,131.2,295.8,85.2"/>
</g>
</svg>
