<?xml version="1.0" encoding="utf-8"?>
<!-- Generator: Adobe Illustrator 22.1.0, SVG Export Plug-In . SVG Version: 6.00 Build 0)  -->
<svg version="1.1" id="Layer_2" xmlns="http://www.w3.org/2000/svg" xmlns:xlink="http://www.w3.org/1999/xlink" x="0px" y="0px"
	 viewBox="0 0 76.5 72.7" style="enable-background:new 0 0 76.5 72.7;" xml:space="preserve">
<style type="text/css">
	.st0{fill:#FFFFFF;}
</style>
<g>
	<path class="st0" d="M38.2,57.6c-0.1,0-0.1,0-0.2,0l-4-17.8c-0.1-0.5-0.7-0.9-1.2-0.8c-0.5,0.1-0.9,0.7-0.8,1.2l4,18
		c-0.9,0.6-1.5,1.7-1.5,2.9c0,2,1.6,3.5,3.5,3.5s3.5-1.6,3.5-3.5C41.8,59.2,40.2,57.6,38.2,57.6z M38.2,62.7c-0.9,0-1.5-0.7-1.5-1.5
		s0.7-1.5,1.5-1.5s1.5,0.7,1.5,1.5S39.1,62.7,38.2,62.7z"/>
	<path class="st0" d="M28.2,41c-5.3,3.9-8.3,9.9-8.3,16.4c0,1.9,0.3,3.8,0.8,5.7c0.1,0.4,0.5,0.7,1,0.7c0.1,0,0.2,0,0.3,0
		c0.5-0.2,0.8-0.7,0.7-1.2c-0.5-1.7-0.7-3.4-0.7-5.1c0-5.9,2.7-11.2,7.5-14.8c0.4-0.3,0.5-1,0.2-1.4C29.2,40.8,28.6,40.7,28.2,41z"
		/>
	<path class="st0" d="M37.9,41.1c0.6,0,1.1-0.5,1.1-1.1S38.5,39,37.9,39s-1.1,0.5-1.1,1.1S37.3,41.1,37.9,41.1z"/>
	<path class="st0" d="M7.7,9.2c0.6,0,1.1-0.5,1.1-1.1S8.2,7.1,7.7,7.1S6.6,7.6,6.6,8.2S7.1,9.2,7.7,9.2z"/>
	<path class="st0" d="M13.3,9.2c0.6,0,1.1-0.5,1.1-1.1s-0.5-1.1-1.1-1.1s-1.1,0.5-1.1,1.1S12.7,9.2,13.3,9.2z"/>
	<circle class="st0" cx="18.9" cy="8.2" r="1.1"/>
	<path class="st0" d="M44,40.8c-0.6,0-1.1,0.5-1.1,1.1s0.5,1.1,1.1,1.1s1.1-0.5,1.1-1.1S44.5,40.8,44,40.8z"/>
	<circle class="st0" cx="49.6" cy="45" r="1.1"/>
	<path class="st0" d="M54.1,50.3c0-0.6-0.5-1.1-1.1-1.1c-0.6,0-1.1,0.5-1.1,1.1s0.5,1.1,1.1,1.1C53.7,51.3,54.1,50.8,54.1,50.3z"/>
	<path class="st0" d="M54.9,55.1c-0.6,0-1.1,0.5-1.1,1.1s0.5,1.1,1.1,1.1s1.1-0.5,1.1-1.1S55.5,55.1,54.9,55.1z"/>
	<circle class="st0" cx="54.1" cy="62.8" r="1.1"/>
	<path class="st0" d="M76.5,14.8c0-0.1,0-0.1,0-0.2V3.5C76.5,1.6,74.9,0,73,0H3.5C1.6,0,0,1.6,0,3.5v57.9c0,1.9,1.6,3.5,3.5,3.5
		h10.7c0.7,2.6,1.9,5.1,3.5,7.3l0.3,0.4h40.6l0.3-0.4c1.6-2.3,2.7-4.7,3.5-7.3H73c1.9,0,3.5-1.6,3.5-3.5V15
		C76.5,15,76.5,14.9,76.5,14.8z M3.5,2H73c0.8,0,1.5,0.7,1.5,1.5v10.3H2V3.5C2,2.7,2.7,2,3.5,2z M57.5,70.7H19
		c-1.4-2.2-2.5-4.6-3.1-7.1c-0.1-0.4-0.2-0.8-0.2-1.1c0-0.1,0-0.3-0.1-0.4c-0.1-0.3-0.1-0.7-0.2-1c0-0.2-0.1-0.5-0.1-0.7
		c0-0.3-0.1-0.5-0.1-0.8c0-0.5-0.1-1-0.1-1.5c0-12.7,10.3-23,23-23s23,10.3,23,23c0,0.5,0,1-0.1,1.5c0,0.3,0,0.5-0.1,0.8
		c0,0.2,0,0.4-0.1,0.7c0,0.3-0.1,0.7-0.2,1c0,0.1,0,0.2-0.1,0.4c-0.1,0.4-0.2,0.8-0.2,1.1C60,66.1,58.9,68.5,57.5,70.7z M73,62.9
		H62.8c0-0.1,0-0.3,0.1-0.4c0.1-0.3,0.1-0.7,0.2-1c0.1-0.4,0.1-0.8,0.1-1.2c0-0.2,0-0.4,0-0.5c0-0.5,0.1-1.1,0.1-1.6
		c0-13.8-11.2-25-25-25s-25,11.2-25,25c0,0.5,0,1.1,0.1,1.6c0,0.2,0,0.4,0,0.5c0,0.4,0.1,0.8,0.1,1.3c0,0.3,0.1,0.7,0.2,1
		c0,0.1,0,0.3,0.1,0.4H3.5c-0.8,0-1.5-0.7-1.5-1.5V15.8h72.5v45.6C74.5,62.2,73.8,62.9,73,62.9z"/>
	<path class="st0" d="M28.2,23H10.8c-0.6,0-1,0.4-1,1s0.4,1,1,1h17.4c0.6,0,1-0.4,1-1S28.7,23,28.2,23z"/>
	<path class="st0" d="M56,23h-4.3c-0.6,0-1,0.4-1,1s0.4,1,1,1H56c0.6,0,1-0.4,1-1S56.6,23,56,23z"/>
	<path class="st0" d="M65.1,23h-4.3c-0.6,0-1,0.4-1,1s0.4,1,1,1h4.3c0.6,0,1-0.4,1-1S65.6,23,65.1,23z"/>
</g>
</svg>
