<?xml version="1.0" encoding="utf-8"?>
<!-- Generator: Adobe Illustrator 22.1.0, SVG Export Plug-In . SVG Version: 6.00 Build 0)  -->
<svg version="1.1" id="Layer_2" xmlns="http://www.w3.org/2000/svg" xmlns:xlink="http://www.w3.org/1999/xlink" x="0px" y="0px"
	 viewBox="0 0 76.5 72.9" style="enable-background:new 0 0 76.5 72.9;" xml:space="preserve">
<style type="text/css">
	.st0{fill:#FFFFFF;}
</style>
<g>
	<path class="st0" d="M7.7,9.2c0.6,0,1.1-0.5,1.1-1.1S8.2,7.1,7.7,7.1c-0.6,0-1.1,0.5-1.1,1.1S7.1,9.2,7.7,9.2z"/>
	<path class="st0" d="M13.3,9.2c0.6,0,1.1-0.5,1.1-1.1s-0.5-1.1-1.1-1.1s-1.1,0.5-1.1,1.1S12.7,9.2,13.3,9.2z"/>
	<path class="st0" d="M18.9,9.2c0.6,0,1.1-0.5,1.1-1.1s-0.5-1.1-1.1-1.1s-1.1,0.5-1.1,1.1S18.3,9.2,18.9,9.2z"/>
	<path class="st0" d="M76.5,14.8c0-0.1,0-0.1,0-0.2V3.5C76.5,1.6,74.9,0,73,0H3.5C1.6,0,0,1.6,0,3.5v57.9c0,1.9,1.6,3.5,3.5,3.5H26
		c0.1,0,0.1,0,0.2,0c3,2.2,6.6,3.5,10.6,3.5c4.2,0,8-1.5,11-3.9l7.6,7.6c0.5,0.5,1.2,0.8,2,0.8s1.4-0.3,2-0.8c0.5-0.5,0.8-1.2,0.8-2
		s-0.3-1.4-0.8-2L56,64.9h17c1.9,0,3.5-1.6,3.5-3.5V15C76.5,15,76.5,14.9,76.5,14.8z M3.5,2H73c0.8,0,1.5,0.7,1.5,1.5v10.3H2V3.5
		C2,2.7,2.7,2,3.5,2z M21,50.6c0-8.7,7.1-15.7,15.7-15.7S52.5,42,52.5,50.6s-7.1,15.7-15.7,15.7S21,59.3,21,50.6z M58.1,70.1
		c0,0.2-0.1,0.4-0.2,0.6c-0.3,0.3-0.8,0.3-1.1,0l-7.4-7.4c0.4-0.4,0.8-0.7,1.1-1.1l7.4,7.4v0C58,69.7,58.1,69.9,58.1,70.1z M73,62.9
		H54.5c-0.1,0-0.3,0-0.4,0.1l-2.6-2.6c1.9-2.8,2.9-6.2,2.9-9.8c0-9.8-8-17.7-17.7-17.7S19,40.9,19,50.6c0,4.7,1.9,9,4.9,12.2H3.5
		c-0.8,0-1.5-0.7-1.5-1.5V15.8h72.5v45.6C74.5,62.2,73.8,62.9,73,62.9z"/>
	<path class="st0" d="M28.2,23H10.8c-0.6,0-1,0.4-1,1s0.4,1,1,1h17.4c0.6,0,1-0.4,1-1S28.7,23,28.2,23z"/>
	<path class="st0" d="M56,23h-4.3c-0.6,0-1,0.4-1,1s0.4,1,1,1H56c0.6,0,1-0.4,1-1S56.6,23,56,23z"/>
	<path class="st0" d="M65.1,23h-4.3c-0.6,0-1,0.4-1,1s0.4,1,1,1h4.3c0.6,0,1-0.4,1-1S65.6,23,65.1,23z"/>
	<path class="st0" d="M48.7,45.9c-0.3-0.5-0.9-0.6-1.4-0.3l-3.6,2.5l-2.1-3.7c-0.2-0.3-0.6-0.5-0.9-0.5c-0.4,0-0.7,0.3-0.9,0.6
		l-2.3,5.3l-3.1-6.5c-0.2-0.4-0.6-0.6-1-0.6c-0.4,0-0.8,0.3-0.9,0.7L29,53.8l-3.7-2.7c-0.4-0.3-1.1-0.2-1.4,0.2
		c-0.3,0.4-0.2,1.1,0.2,1.4l4.8,3.4c0.2,0.1,0.4,0.2,0.6,0.2c0.1,0,0.2,0,0.3,0c0.3-0.1,0.5-0.3,0.6-0.6l3.2-9.2l3,6.3
		c0.2,0.4,0.5,0.6,0.9,0.6c0.4,0,0.7-0.2,0.9-0.6l2.4-5.5l1.6,2.9c0.1,0.2,0.4,0.4,0.6,0.5c0.3,0.1,0.6,0,0.8-0.2l4.5-3.1
		C48.9,47,49,46.3,48.7,45.9z"/>
</g>
</svg>
