<?xml version="1.0" encoding="utf-8"?>
<!-- Generator: Adobe Illustrator 22.1.0, SVG Export Plug-In . SVG Version: 6.00 Build 0)  -->
<svg version="1.1" id="Layer_2" xmlns="http://www.w3.org/2000/svg" xmlns:xlink="http://www.w3.org/1999/xlink" x="0px" y="0px"
	 viewBox="0 0 76.5 73.8" style="enable-background:new 0 0 76.5 73.8;" xml:space="preserve">
<style type="text/css">
	.st0{fill:#FBD116;}
</style>
<g>
	<path class="st0" d="M7.7,7.1c-0.6,0-1.1,0.5-1.1,1.1s0.5,1.1,1.1,1.1c0.6,0,1.1-0.5,1.1-1.1S8.2,7.1,7.7,7.1z"/>
	<path class="st0" d="M13.3,7.1c-0.6,0-1.1,0.5-1.1,1.1s0.5,1.1,1.1,1.1s1.1-0.5,1.1-1.1S13.9,7.1,13.3,7.1z"/>
	<path class="st0" d="M18.9,7.1c-0.6,0-1.1,0.5-1.1,1.1s0.5,1.1,1.1,1.1s1.1-0.5,1.1-1.1S19.5,7.1,18.9,7.1z"/>
	<path class="st0" d="M76.5,14.8c0-0.1,0-0.1,0-0.2V3.5C76.5,1.6,74.9,0,73,0H3.5C1.6,0,0,1.6,0,3.5v57.9c0,1.9,1.6,3.5,3.5,3.5H26
		c0.6,0,1-0.4,1-1s-0.4-1-1-1H3.5c-0.8,0-1.5-0.7-1.5-1.5V15.8h72.5v45.6c0,0.8-0.7,1.5-1.5,1.5H54.5c-0.6,0-1,0.4-1,1s0.4,1,1,1H73
		c1.9,0,3.5-1.6,3.5-3.5V15C76.5,15,76.5,14.9,76.5,14.8z M2,13.8V3.5C2,2.7,2.7,2,3.5,2H73c0.8,0,1.5,0.7,1.5,1.5v10.3H2z"/>
	<path class="st0" d="M28.2,25c0.6,0,1-0.4,1-1s-0.4-1-1-1H10.8c-0.6,0-1,0.4-1,1s0.4,1,1,1H28.2z"/>
	<path class="st0" d="M37.8,39.1c0,0.6,0.4,1,1,1h24.1c0.6,0,1-0.4,1-1s-0.4-1-1-1H38.8C38.3,38.1,37.8,38.5,37.8,39.1z"/>
	<path class="st0" d="M44.5,31.5c0,0.6,0.4,1,1,1h17.4c0.6,0,1-0.4,1-1s-0.4-1-1-1H45.5C45,30.5,44.5,30.9,44.5,31.5z"/>
	<path class="st0" d="M10.2,38.1c-0.6,0-1,0.4-1,1s0.4,1,1,1h9.3c0.6,0,1-0.4,1-1s-0.4-1-1-1H10.2z"/>
	<path class="st0" d="M35.8,31.5c0-0.6-0.4-1-1-1H10.2c-0.6,0-1,0.4-1,1s0.4,1,1,1h24.6C35.4,32.5,35.8,32,35.8,31.5z"/>
	<path class="st0" d="M56,25c0.6,0,1-0.4,1-1s-0.4-1-1-1h-4.3c-0.6,0-1,0.4-1,1s0.4,1,1,1H56z"/>
	<path class="st0" d="M65.1,25c0.6,0,1-0.4,1-1s-0.4-1-1-1h-4.3c-0.6,0-1,0.4-1,1s0.4,1,1,1H65.1z"/>
	<path class="st0" d="M53.7,58.4L24.1,36.5l10.4,36.3l5.8-6.5l5,7.5l6.1-4.7l-5-7.1L53.7,58.4z M48.7,68.6l-2.9,2.2L40.5,63
		l-5.1,5.8l-7.8-27.1L49.8,58l-6.4,3.1L48.7,68.6z"/>
</g>
</svg>
