<?xml version="1.0" encoding="utf-8"?>
<!-- Generator: Adobe Illustrator 22.1.0, SVG Export Plug-In . SVG Version: 6.00 Build 0)  -->
<svg version="1.1" id="Layer_2" xmlns="http://www.w3.org/2000/svg" xmlns:xlink="http://www.w3.org/1999/xlink" x="0px" y="0px"
	 viewBox="0 0 76.6 71.8" style="enable-background:new 0 0 76.6 71.8;" xml:space="preserve">
<style type="text/css">
	.st0{fill:#FBD116;}
</style>
<g>
	<path class="st0" d="M26.5,20H9c-0.6,0-1,0.4-1,1s0.4,1,1,1h17.4c0.6,0,1-0.4,1-1S27,20,26.5,20z"/>
	<path class="st0" d="M58.5,20h-4.3c-0.6,0-1,0.4-1,1s0.4,1,1,1h4.3c0.6,0,1-0.4,1-1S59.1,20,58.5,20z"/>
	<path class="st0" d="M67.6,20h-4.3c-0.6,0-1,0.4-1,1s0.4,1,1,1h4.3c0.6,0,1-0.4,1-1S68.2,20,67.6,20z"/>
	<path class="st0" d="M8.1,9.1c0.6,0,1-0.5,1-1s-0.5-1-1-1S7,7.5,7,8S7.5,9.1,8.1,9.1z"/>
	<path class="st0" d="M13.6,9.1c0.6,0,1-0.5,1-1s-0.5-1-1-1s-1,0.5-1,1S13.1,9.1,13.6,9.1z"/>
	<path class="st0" d="M19.2,9.1c0.6,0,1-0.5,1-1s-0.5-1-1-1c-0.6,0-1,0.5-1,1S18.6,9.1,19.2,9.1z"/>
	<path class="st0" d="M73.1,0H3.5C1.6,0,0,1.6,0,3.5v58C0,63.4,1.6,65,3.5,65h9.8c0.8,2.2,1.8,4.4,3.2,6.4l0.3,0.4h43.5l0.3-0.4
		c1.4-2,2.4-4.1,3.2-6.4h9.3c1.9,0,3.5-1.6,3.5-3.5v-58C76.6,1.6,75,0,73.1,0z M3.5,2h69.6c0.8,0,1.5,0.7,1.5,1.5v10.1H2V3.5
		C2,2.7,2.7,2,3.5,2z M37.8,55c-0.6-0.2-1.1-0.4-1.4-0.7c-0.6-0.4-0.8-1-0.8-1.8c0-0.7,0.2-1.2,0.6-1.6c0.4-0.4,0.9-0.6,1.7-0.6V55z
		 M59.3,69.8H39.1v-2.6c1.4-0.1,2.6-0.5,3.6-1.1c1.6-1,2.5-2.6,2.5-4.9c0-1.7-0.6-3-1.8-3.9c-0.7-0.6-2.1-1.2-4.2-1.9v-5.1
		c0.9,0.1,1.5,0.4,1.8,1c0.2,0.4,0.3,0.9,0.4,1.7h3.5c-0.1-2.1-0.8-3.7-2.3-4.6c-0.8-0.6-1.9-0.9-3.4-1.1v-1.8h-1.3v1.8
		c-0.9,0.1-1.6,0.2-2.1,0.3C35,48,34.3,48.4,33.7,49c-0.5,0.5-0.9,1.1-1.1,1.7c-0.3,0.7-0.4,1.4-0.4,2.2c0,1.2,0.3,2.3,1,3.2
		s1.9,1.6,3.6,2.1l1.1,0.3v5.7c-1-0.2-1.7-0.6-2-1.2c-0.2-0.4-0.4-1.1-0.5-2.2h-3.6c0,2.4,0.7,4.2,2.2,5.2c0.9,0.6,2.2,0.9,3.9,1.1
		v2.6h-20c-1.3-2-2.3-4.1-3-6.3c-0.1-0.4-0.2-0.8-0.3-1.2c-0.1-0.2-0.1-0.4-0.2-0.6c-0.1-0.4-0.2-0.8-0.2-1.2c0-0.2-0.1-0.4-0.1-0.6
		C14,59.5,14,59,13.9,58.6c0-0.2,0-0.4-0.1-0.6c0-0.6-0.1-1.2-0.1-1.9c0-13.7,11.1-24.8,24.8-24.8c13.7,0,24.8,11.1,24.8,24.8
		c0,0.6,0,1.2-0.1,1.9c0,0.2,0,0.4-0.1,0.6c0,0.4-0.1,0.9-0.1,1.3c0,0.2-0.1,0.4-0.1,0.6c-0.1,0.4-0.1,0.8-0.2,1.2
		c0,0.2-0.1,0.4-0.2,0.6c-0.1,0.4-0.2,0.8-0.3,1.2C61.5,65.7,60.5,67.8,59.3,69.8z M39.1,64.2V59c0.7,0.3,1.3,0.5,1.6,0.8
		c0.5,0.4,0.8,1,0.8,1.8c0,1-0.3,1.7-0.8,2.1C40.3,64,39.8,64.1,39.1,64.2z M73.1,63h-8.7c0-0.1,0.1-0.3,0.1-0.4
		c0.1-0.3,0.1-0.5,0.2-0.8c0.1-0.4,0.1-0.7,0.2-1.1c0-0.3,0.1-0.5,0.1-0.8c0.1-0.4,0.1-0.8,0.1-1.2c0-0.2,0-0.4,0.1-0.6
		c0-0.6,0.1-1.3,0.1-1.9c0-14.8-12-26.8-26.8-26.8c-14.8,0-26.8,12-26.8,26.8c0,0.6,0,1.3,0.1,1.9c0,0.2,0,0.4,0.1,0.6
		c0,0.4,0.1,0.8,0.1,1.2c0,0.3,0.1,0.5,0.1,0.8c0.1,0.4,0.1,0.7,0.2,1.1c0.1,0.3,0.1,0.5,0.2,0.8c0,0.1,0.1,0.3,0.1,0.4H3.5
		C2.7,63,2,62.3,2,61.5V15.6h72.6v45.9C74.6,62.3,73.9,63,73.1,63z"/>
</g>
</svg>
