<?xml version="1.0" encoding="utf-8"?>
<!-- Generator: Adobe Illustrator 22.1.0, SVG Export Plug-In . SVG Version: 6.00 Build 0)  -->
<svg version="1.1" id="Layer_2" xmlns="http://www.w3.org/2000/svg" xmlns:xlink="http://www.w3.org/1999/xlink" x="0px" y="0px"
	 viewBox="0 0 76.6 72.8" style="enable-background:new 0 0 76.6 72.8;" xml:space="preserve">
<style type="text/css">
	.st0{fill:#FFFFFF;}
</style>
<g>
	<path class="st0" d="M26.5,20H9c-0.6,0-1,0.4-1,1s0.4,1,1,1h17.4c0.6,0,1-0.4,1-1S27,20,26.5,20z"/>
	<path class="st0" d="M58.5,20h-4.3c-0.6,0-1,0.4-1,1s0.4,1,1,1h4.3c0.6,0,1-0.4,1-1S59.1,20,58.5,20z"/>
	<path class="st0" d="M67.6,20h-4.3c-0.6,0-1,0.4-1,1s0.4,1,1,1h4.3c0.6,0,1-0.4,1-1S68.2,20,67.6,20z"/>
	<path class="st0" d="M8.1,9.1c0.6,0,1-0.5,1-1s-0.5-1-1-1S7,7.5,7,8S7.5,9.1,8.1,9.1z"/>
	<circle class="st0" cx="13.6" cy="8" r="1"/>
	<path class="st0" d="M19.2,9.1c0.6,0,1-0.5,1-1s-0.5-1-1-1s-1,0.5-1,1S18.6,9.1,19.2,9.1z"/>
	<path class="st0" d="M73.1,0H3.5C1.6,0,0,1.6,0,3.5v58C0,63.4,1.6,65,3.5,65H25l0,6.8c0,0.6,0.4,1,1,1l6.4,0c0.6,0,1-0.4,1-1
		c0,0,0,0,0-0.1c0-0.8,0.3-1.5,0.9-2.1c0.6-0.6,1.3-0.9,2.1-0.9h0c0.8,0,1.5,0.3,2.1,0.9c0.6,0.6,0.9,1.3,0.9,2
		c0,0.3,0.1,0.6,0.2,0.8s0.5,0.3,0.7,0.3l6.4,0c0.3,0,0.5-0.1,0.7-0.3s0.3-0.4,0.3-0.7l0-3.1h3c0.3,0,0.5-0.1,0.7-0.3
		s0.3-0.4,0.3-0.7l0-2.7h21.5c1.9,0,3.5-1.6,3.5-3.5v-58C76.6,1.6,75.1,0,73.1,0z M3.5,2h69.6c0.8,0,1.5,0.7,1.5,1.5v10.1H2V3.5
		C2,2.7,2.7,2,3.5,2z M41.1,70.8c-0.2-1-0.7-1.8-1.4-2.5c-0.9-0.9-2.2-1.4-3.5-1.4h0c-1.3,0-2.6,0.5-3.5,1.4
		c-0.7,0.7-1.2,1.6-1.4,2.5l-4.5,0l0-35.5l4.5,0c0.5,2.2,2.5,3.9,4.8,3.9c0,0,0,0,0,0c1.3,0,2.6-0.5,3.5-1.4
		c0.7-0.7,1.2-1.6,1.3-2.5l4.5,0l0,35.5L41.1,70.8z M31,33.3v-2.1l4.5,0c0.4,1.9,1.8,3.3,3.7,3.8c-0.1,0.5-0.4,1-0.8,1.4
		c-0.6,0.6-1.3,0.9-2.1,0.9c0,0,0,0,0,0c-1.6,0-2.9-1.3-2.9-2.9c0-0.6-0.4-1-1-1L31,33.3z M47.6,66.7l0-32.3c0-0.6-0.4-1-1-1l-2.5,0
		c0.5-0.6,0.9-1.3,1-2.1l4.5,0l0,35.5H47.6z M73.1,63H51.6l0-32.8c0-0.6-0.4-1-1-1l-6.4,0c-0.3,0-0.5,0.1-0.7,0.3
		c-0.2,0.2-0.3,0.4-0.3,0.7c0,0.8-0.3,1.5-0.9,2.1c-0.6,0.6-1.3,0.9-2.1,0.9c0,0,0,0,0,0c-1.6,0-2.9-1.3-2.9-2.9c0-0.6-0.4-1-1-1
		l-6.4,0c-0.6,0-1,0.4-1,1v3.1l-3,0c-0.3,0-0.5,0.1-0.7,0.3c-0.2,0.2-0.3,0.4-0.3,0.7L25,63H3.5C2.7,63,2,62.3,2,61.5V15.6h72.6
		v45.9C74.6,62.3,73.9,63,73.1,63z"/>
	<path class="st0" d="M34,43.3c-0.6,0-1,0.4-1,1l0,17.5c0,0.6,0.4,1,1,1c0.6,0,1-0.4,1-1l0-17.5C35,43.7,34.5,43.3,34,43.3z"/>
	<path class="st0" d="M38.3,46.2c-0.6,0-1,0.4-1,1l0,14.6c0,0.6,0.4,1,1,1c0.6,0,1-0.4,1-1l0-14.6C39.3,46.7,38.8,46.2,38.3,46.2z"
		/>
</g>
</svg>
