<?xml version="1.0" encoding="utf-8"?>
<!-- Generator: Adobe Illustrator 22.1.0, SVG Export Plug-In . SVG Version: 6.00 Build 0)  -->
<svg version="1.1" id="Layer_2" xmlns="http://www.w3.org/2000/svg" xmlns:xlink="http://www.w3.org/1999/xlink" x="0px" y="0px"
	 viewBox="0 0 77.4 69.7" style="enable-background:new 0 0 77.4 69.7;" xml:space="preserve">
<style type="text/css">
	.st0{fill:#FFFFFF;}
</style>
<g>
	<path class="st0" d="M73.9,0H3.5C1.6,0,0,1.6,0,3.5v62.7c0,1.9,1.6,3.5,3.5,3.5h70.4c1.9,0,3.5-1.6,3.5-3.5V3.5
		C77.4,1.6,75.9,0,73.9,0z M3.5,2h70.4c0.8,0,1.5,0.7,1.5,1.5v10.3H2V3.5C2,2.7,2.7,2,3.5,2z M73.9,67.7H3.5C2.7,67.7,2,67,2,66.2
		V15.8h73.4v50.4C75.4,67,74.8,67.7,73.9,67.7z"/>
	<path class="st0" d="M9.7,22h17.4c0.6,0,1-0.4,1-1s-0.4-1-1-1H9.7c-0.6,0-1,0.4-1,1S9.2,22,9.7,22z"/>
	<path class="st0" d="M55,22h4.3c0.6,0,1-0.4,1-1s-0.4-1-1-1H55c-0.6,0-1,0.4-1,1S54.4,22,55,22z"/>
	<path class="st0" d="M68.3,20h-4.3c-0.6,0-1,0.4-1,1s0.4,1,1,1h4.3c0.6,0,1-0.4,1-1S68.9,20,68.3,20z"/>
	<path class="st0" d="M8.2,9.2c0.6,0,1.1-0.5,1.1-1.1S8.8,7.1,8.2,7.1S7.1,7.5,7.1,8.1S7.6,9.2,8.2,9.2z"/>
	<path class="st0" d="M13.8,9.2c0.6,0,1.1-0.5,1.1-1.1s-0.5-1.1-1.1-1.1c-0.6,0-1.1,0.5-1.1,1.1S13.2,9.2,13.8,9.2z"/>
	<circle class="st0" cx="19.4" cy="8.1" r="1.1"/>
	<path class="st0" d="M67.7,27.3H10.2c-0.8,0-1.4,0.6-1.4,1.4v18.5c0,0.8,0.6,1.4,1.4,1.4h57.5c0.8,0,1.4-0.6,1.4-1.4V28.7
		C69.2,27.9,68.5,27.3,67.7,27.3z M67.2,46.7H10.7V29.3h56.4V46.7z"/>
	<path class="st0" d="M67.7,54.5H10.2c-0.8,0-1.4,0.6-1.4,1.4v4.3c0,0.8,0.6,1.4,1.4,1.4h57.5c0.8,0,1.4-0.6,1.4-1.4v-4.3
		C69.2,55.1,68.5,54.5,67.7,54.5z"/>
</g>
</svg>
