<?xml version="1.0" encoding="utf-8"?>
<!-- Generator: Adobe Illustrator 22.1.0, SVG Export Plug-In . SVG Version: 6.00 Build 0)  -->
<svg version="1.1" id="Layer_1" xmlns="http://www.w3.org/2000/svg" xmlns:xlink="http://www.w3.org/1999/xlink" x="0px" y="0px"
	 viewBox="53.8 -34 183.7 146.9" style="enable-background:new 53.8 -34 183.7 146.9;" xml:space="preserve">
<style type="text/css">
	.st0{fill:#CFC493;}
	.st1{fill:#FFFFFF;}
	.st2{fill:#006747;}
</style>
<g transform="matrix(.5 0 0 .5 .81097 .91759)">
	<path class="st0" d="M256.3,121.9c1.6-1.1,13.6-8.8,13.8-9.1l48.9-81c18.2,0.5,67.5-0.1,81.9-8.6c-2.4-4.9-5.4-9.5-7.1-14.8
		c-12.7-37.5,28-59.5,53.5-77l-9.4,36.8c-1.2,4.8-0.7,9.2,2.2,13.3C451.7-1.8,476.6,1.8,473,32.6c-5.9,51.1-63,65.2-106.2,67.5
		c-11.5,19.1-18.1,34.2-39.4,44.4L310.6,174c0.7,5.4,0.9,9.5-1.8,14.5c-5.5,10-41.3,28.8-52.7,35.5l-104.7-1.1
		c-7.7-12.1-31.4-43.8-20.2-57.5c1.9-2.3,10.1-8.6,10.5-9.3l18.7-29.6c-6.5-14.1-7.1-18,1.7-31.1c-42.9-6.6-71.1-28.7-47.6-73.7
		C132.7-13,180.1-13.1,191.9-43l10.5-26.8l14.7,24.8c18.6,31.4-3.6,49.4-25.3,68.9c23.5,6.6,71,5.8,96.9,5.4l-59.5,89.1
		c1.4,3.3,2.8,6.6,4.1,10c-5.5,10-11.1,20-16.9,29.9l18.7,0.4c6.9-12.3,13.5-24.8,20.2-37.2L256.3,121.9"/>
	<path class="st1" d="M166.9,122c-1.4-3-2.9-6.6-3.2-7.9c-0.4-2.3-0.7-5.8,1.4-8.9l10.7-16c-57.1-4.5-73.5-29.3-54.4-63.7
		c5-9.1,12-15.6,19.6-20.8c3.7-2.5,7.6-4.8,11.6-7c3.8-2.1,7.8-4,11.7-6c15.5-7.9,28.6-15.6,35-31.9l4.7-11.9l6.6,11
		c11.8,19.9,1.5,35.9-9.4,46.7c-2.7,2.7-5.5,5.2-8.3,7.5c-2.7,2.2-5.2,4.3-7.5,6.2c-2.3,1.9-4,3.4-5.1,4.7c-0.4,0.4-0.7,0.8-0.9,1.1
		c0,0.7,0.5,1.6,2.1,2.7c1.8,1.2,4.6,2.3,8.2,3.3c7.3,2,17.2,3.3,27.4,4.3c20.5,1.9,42,2.1,45,2l12-0.2l-53.7,80.4l2.2,4.4
		c0.7,1.3,1.3,2.7,1.8,3.7l0.6,1.3c0.3,0.7,0.3,1.3,0.3,1.4l-1.5-0.2c0,0,1.6,0.3,1.1,1.3l-0.7,1.2l-2.7,4.4l-8.1,13.4L203,165.7
		c7.8,0.2,30.3,0.7,36.8,0.8c3-5.6,20-37.1,20-37.3l0.1-0.8l0.7-0.4c0.4-0.2,13.1-8.3,15.5-9.9l47.3-78.5l3.6,0.1
		c1.2,0,20.1,0.3,39.7-1.5c20.2-1.8,39.4-5.8,43.3-13c0.1-0.4,0-0.6-0.1-0.8c-0.3-1-0.8-2.3-1.8-4.1c-1-1.9-2.2-4-3.4-6.3
		c-1.3-2.5-2.6-5.2-3.5-8.1c-4.4-13.2-2.3-28.8,19-46.1l14.2-10l-4.2,16.4c-3.7,14.8,2.9,21.2,12.7,28.9c2.6,2,5.3,4,7.8,6.2
		c2.6,2.2,5.3,4.7,7.6,7.5c4.8,5.9,7.8,13.3,7,23.1c-2.8,33.4-37.7,58.1-102.9,60.6l-17.7,28.7c-3.4,5.6-15.3,14.1-22.8,17.2
		l-19.3,33.8c0.1,1.6,0.6,6.4,0.7,7.6c0.1,2.1-0.7,3.8-1.2,4.7c-0.6,1-1.3,1.9-2,2.6c-1.4,1.5-3.2,2.9-5.1,4.4
		c-1.9,1.4-12.2,7.6-21.8,13.3c-9.7,5.7-19.2,11.4-19.2,11.4l-98.3-1c0,0-4.1-6.4-8.1-13.2c-4-6.7-8.5-14.5-10-18.6
		c-0.4-1.1-0.8-2.2-1.1-3.2c-0.3-1.1-0.6-2.2-0.8-3.2c-0.3-2.2,0-4.5,1.6-6.5c0.7-0.9,3.3-3.1,5.7-5.1c2.2-1.8,4.3-3.6,5.1-4.2
		l21.3-33.9C168.8,126.1,167.8,124.2,166.9,122"/>
	<path class="st2" d="M205.1-37.8c19,32-30.7,51.5-32.2,62.2c-3,20.8,89.2,19.3,89.2,19.3l-49.1,73.5c0,0,5.1,11.5,5.4,11.5
		c0.2,0-26.2,42.3-26.5,43.1l51.4,1.1c0.6-0.2,21-40.1,21.4-40c0.2,0,16-10.3,16-10.3L326.8,46c0,0,78.6,1.9,88.8-18.9
		c5.3-10.7-30.8-30.5,8.4-62.5C414.6,2,461.7-0.6,459,31.4c-2.4,28.7-33.3,53.2-100.2,55L339.3,118c-2.9,4.7-15.9,13.8-21.7,15.4
		l-21.3,37.2c-0.3,0.5,0.5,7,0.7,9.6c0.3,5.5-37.1,25.1-44.7,29.7l-93-0.9c-3.5-5.9-19.6-29-16.6-34.8c1.6-3.1,11.2-9.2,10.7-9.4
		l23.1-37c-1.2-4.1-8.9-14.7-6-19.1l16.9-25.2c-65.2-2.1-76.7-25.4-60.3-55C144.6-3.4,190.4-0.5,205.1-37.8"/>
</g>
</svg>
