<?xml version="1.0" encoding="utf-8"?>
<!-- Generator: Adobe Illustrator 22.1.0, SVG Export Plug-In . SVG Version: 6.00 Build 0)  -->
<svg version="1.1" id="Layer_1" xmlns="http://www.w3.org/2000/svg" xmlns:xlink="http://www.w3.org/1999/xlink" x="0px" y="0px"
	 viewBox="-220.3 368.9 150.9 103.9" style="enable-background:new -220.3 368.9 150.9 103.9;" xml:space="preserve">
<style type="text/css">
	.st0{fill:#E8D3A2;}
	.st1{fill:#4B2E83;}
</style>
<g transform="matrix(1.25 0 0 -1.25 -279.38 615.22)">
	<g transform="translate(.59876 .89814)">
		<path class="st0" d="M164.4,179.3h-9c0,0-16.4-62.4-16.6-63.2h-21.9c-0.2,0.8-9.9,39.8-9.9,39.8s-10.3-39-10.5-39.8H74.6
			c-0.2,0.8-15.8,63.2-15.8,63.2h-9v13.9h40.8v-13.9H80.4l10-40.6c0,0,14.4,53.8,14.6,54.5h14.1c0.2-0.8,13.5-54.5,13.5-54.5
			l10.9,40.6h-9.8v13.9h30.5L164.4,179.3L164.4,179.3z M130.9,196.2v-19.9h8.9c-1.2-4.3-4.1-15.3-6.9-25.6
			c-3.5,14.2-11.3,45.5-11.3,45.5l-18.8,0c0,0-8.4-31.3-12.2-45.5C88,161,85.3,172,84.2,176.3h9.3v19.9H46.7v-19.9h9.7
			c1.1-4.2,15.8-63.2,15.8-63.2l26.6,0c0,0,5,19.1,8.1,30.7c2.9-11.6,7.7-30.7,7.7-30.7l26.6,0c0,0,15.5,59,16.6,63.2h9.7v19.9
			L130.9,196.2L130.9,196.2z"/>
		<path class="st1" d="M133.9,193.2v-13.9h9.8l-10.9-40.6c0,0-13.4,53.8-13.5,54.5h-14.1c-0.2-0.7-14.6-54.5-14.6-54.5l-10,40.6
			h10.2v13.9H49.7v-13.9h9c0,0,15.6-62.4,15.8-63.2h21.9c0.2,0.7,10.5,39.8,10.5,39.8s9.8-39,9.9-39.8h21.9
			c0.2,0.7,16.6,63.2,16.6,63.2h9v13.9H133.9L133.9,193.2z"/>
	</g>
</g>
</svg>
