<?xml version="1.0" encoding="utf-8"?>
<!-- Generator: Adobe Illustrator 22.1.0, SVG Export Plug-In . SVG Version: 6.00 Build 0)  -->
<svg version="1.1" id="Isolation_Mode" xmlns="http://www.w3.org/2000/svg" xmlns:xlink="http://www.w3.org/1999/xlink" x="0px"
	 y="0px" viewBox="0 0 497.6 170.2" style="enable-background:new 0 0 497.6 170.2;" xml:space="preserve">
<style type="text/css">
	.st0{fill:#B6B6B6;}
</style>
<g>
	<path class="st0" d="M489.4,130c-1.4,1.6-6,3.3-10.6,3.3c-7.1,0-11.4-5.7-11.4-13.3v-48H494V35.8h-26.6V0h-41.8v35.8h-18
		c13,5.3,18,17.1,18,36.1l0,0v59.7c0,25.2,14.4,38.5,41,38.5c15.5,0,25.8-3.8,30.9-8.7L489.4,130z"/>
	<path class="st0" d="M369.8,32.6c-20.6,0-37.7,11.9-45.3,23.3c-5.4-15.5-18.2-23.3-37.2-23.3c-20.6,0-37.5,11.7-43.2,19.3v-16
		h-10.3l-31.5,106.4v24.7h41.8V82.2c4.3-5.4,12.2-12.8,23.6-12.8c12.5,0,17.1,7.6,17.1,17.6v79.8h41.8V82.2
		c4.1-5.4,12.2-12.8,23.6-12.8c12.5,0,17.4,7.6,17.4,17.6v79.8h41.5v-95C409.1,45.1,393.9,32.6,369.8,32.6z"/>
	<path class="st0" d="M133,166.9l-24.7-81.2l-24.4,81.2H38.8L0,35.8h42.9l21.2,80.3l25.8-80.3H127l25.8,80.3l20.9-80.3h43.2
		l-38.8,131.1H133z"/>
</g>
</svg>
